<svg width="313" height="113" viewBox="0 0 313 113" fill="none" xmlns="http://www.w3.org/2000/svg">
<path d="M160.54 57.7888C160.44 55.8988 160.691 53.7077 160.406 51.5333C160.314 50.8642 160.641 50.5046 161.262 50.4963C163.317 50.4712 165.372 50.4377 167.428 50.5046C168.401 50.5381 168.753 51.4831 169.122 52.194C171.11 56.0075 173.073 59.8461 174.986 63.7015C175.397 64.5294 175.925 64.8806 176.848 64.8639C179.046 64.8221 181.244 64.8639 183.433 64.8472C184.616 64.8472 184.767 64.5377 184.188 63.5676C182.124 60.1054 180.078 56.6264 178.014 53.1724C177.586 52.4616 177.125 51.7674 176.647 51.0817C176.034 50.2119 176.059 49.9778 177.058 49.7101C179.247 49.1247 180.715 47.6445 181.999 45.9133C183.525 43.856 183.584 41.4893 183.223 39.1309C182.577 34.8909 178.92 31.5791 174.474 31.1526C170.305 30.7512 166.127 30.8683 161.95 31.0439C161.69 31.0523 161.329 31.2028 161.228 30.8432C161.136 30.517 161.455 30.3498 161.698 30.2411C162.721 29.7978 163.77 29.4131 164.768 28.9364C169.516 26.6868 174.331 24.5709 179.163 22.5137C183.71 20.5734 188.206 18.5245 192.77 16.6428C198.432 14.3095 204.077 11.9344 209.723 9.55936C214.471 7.5606 219.328 5.82109 224.126 3.94778C226.559 2.9944 228.975 2.01592 231.391 1.02909C232.406 0.61094 233.295 0.970549 234.184 1.41379C235.652 2.1581 236.902 3.22856 238.278 4.10668C243.009 7.10899 247.791 10.036 252.505 13.0718C256.448 15.6225 260.332 18.2736 264.216 20.9163C268.242 23.6594 272.26 26.4108 276.237 29.2208C278.049 30.5087 279.709 32.0057 281.521 33.3019C284.374 35.3425 287.083 37.5671 289.86 39.7164C292.007 41.3722 293.911 43.3208 296.118 44.9098C299.339 47.2263 302.208 49.9694 305.295 52.4532C307.702 54.3934 309.774 56.7267 312.383 58.4411C312.786 58.7004 312.702 58.9178 312.308 59.1018C311.922 59.2774 311.528 59.3861 311.1 59.4196C308.222 59.6287 305.337 59.8127 302.459 60.0719C297.812 60.4901 293.173 61.0253 288.526 61.3765C284.189 61.7027 279.852 62.1041 275.557 62.6561C270.658 63.2917 265.7 63.2331 260.835 64.1447C260.248 64.2534 259.761 64.1447 259.484 63.484C258.184 60.2977 256.59 57.2452 255.08 54.1593C251.574 46.9754 248.042 39.8167 244.595 32.6078C243.982 31.3366 243.286 30.7763 241.826 30.8767C239.813 31.0188 237.783 30.9854 235.761 30.8767C234.537 30.8098 233.899 31.345 233.413 32.3402C232.104 34.9829 230.762 37.6172 229.42 40.2516C226.685 45.6374 223.95 51.0315 221.207 56.4173C219.982 58.8342 218.741 61.2427 217.508 63.6513C217.113 64.429 217.29 64.8305 218.103 64.8472C220.192 64.889 222.281 64.8639 224.37 64.8723C225.007 64.8723 225.334 64.5628 225.603 63.9691C226.66 61.6692 227.801 59.4029 228.891 57.1114C229.126 56.618 229.52 56.5093 229.998 56.5093C235.577 56.5093 241.155 56.5093 246.734 56.5009C247.313 56.5009 247.724 56.6933 247.975 57.2452C249.024 59.5116 250.106 61.7696 251.163 64.0276C251.549 64.8555 251.121 65.1901 250.349 65.2737C248.269 65.4995 246.172 65.5915 244.125 65.9595C241.717 66.3943 239.276 66.3693 236.86 66.7372C231.978 67.4732 227.046 67.816 222.163 68.4851C216.199 69.3047 210.193 69.8148 204.245 70.7766C199.883 71.479 195.488 71.9641 191.117 72.5913C183.056 73.7538 174.994 74.8828 166.949 76.1623C161.48 77.0321 156.019 77.9018 150.566 78.8887C143.478 80.1766 136.356 81.2805 129.284 82.652C125.048 83.4716 120.803 84.2326 116.576 85.0857C109.789 86.4572 103.011 87.8705 96.2415 89.2839C92.1897 90.1285 88.1296 90.9565 84.0947 91.8597C78.6253 93.0723 73.1727 94.3519 67.7117 95.6063C64.2891 96.3924 60.8749 97.1953 57.4943 98.1403C53.9543 99.1355 50.3304 99.838 46.7485 100.683C40.0376 102.263 33.377 104.053 26.7248 105.834C24.4766 106.436 22.2201 106.988 19.9719 107.549C15.895 108.561 11.8517 109.715 7.83355 110.936C5.67767 111.588 3.53856 112.257 1.34913 112.801C1.18135 112.842 1.01358 112.893 0.83742 112.918C0.52704 112.96 0.115997 113.035 0.0153331 112.684C-0.0853306 112.357 0.334102 112.291 0.560595 112.165C2.94297 110.86 5.31696 109.556 7.70772 108.276C16.5158 103.568 25.3155 98.8344 34.1571 94.1846C36.6569 92.8716 38.989 91.291 41.472 89.9696C43.7369 88.757 46.1277 87.7869 48.401 86.591C51.4797 84.9769 54.6338 83.4967 57.6369 81.7154C60.271 80.1598 63.0224 78.7967 65.7907 77.492C68.819 76.062 71.7131 74.3977 74.6826 72.8673C77.7109 71.3118 80.8147 69.8817 83.7927 68.2175C90.9063 64.245 98.3638 60.95 105.637 57.287C111.106 54.5272 116.651 51.9096 122.053 49.0244C126.021 46.9002 130.249 45.3614 134.217 43.2539C139.418 40.4941 144.887 38.2946 150.155 35.6854C150.65 35.4345 151.112 35.1083 151.623 34.8909C152.437 34.5397 152.798 34.7655 152.848 35.6519C152.94 37.1155 152.722 38.5623 152.714 40.0174C152.689 46.1642 152.68 52.311 152.714 58.4578C152.722 60.2643 152.924 62.0623 152.714 63.8687C152.647 64.4625 152.991 64.8388 153.561 64.8221C155.541 64.7719 157.521 65.0814 159.509 64.8639C160.238 64.7803 160.532 64.4458 160.524 63.7098C160.498 61.8365 160.515 59.9632 160.515 57.7888H160.54ZM209.287 50.9228H209.27C209.27 46.7246 209.27 42.5263 209.27 38.3281C209.27 37.2186 209.832 36.6666 210.956 36.6722C214.404 36.6722 217.852 36.6722 221.308 36.6722C222.021 36.6722 222.667 36.5719 222.667 35.6436C222.667 34.4309 222.667 33.2183 222.65 31.9973C222.65 31.2279 222.281 30.9017 221.476 30.9017C210.746 30.9185 200.017 30.9268 189.28 30.9101C188.483 30.9101 188.089 31.2112 188.089 31.9806C188.089 33.0845 188.147 34.1968 188.156 35.3007C188.156 36.1872 188.634 36.4631 189.473 36.53C192.711 36.7977 195.949 36.6304 199.187 36.6555C201.519 36.6722 201.469 36.622 201.46 38.972C201.435 47.2347 201.443 55.489 201.427 63.7516C201.427 64.4792 201.687 64.8137 202.433 64.8974C204.346 65.1148 206.267 64.9308 208.18 65.0061C209.044 65.0395 209.312 64.6799 209.304 63.8269C209.27 59.52 209.287 55.2214 209.287 50.9144V50.9228Z" fill="#E40429"/>
<path d="M166.862 35.5937C168.338 35.5937 169.814 35.5674 171.297 35.5937C173.56 35.6377 174.997 37.0783 175.237 39.4676C175.492 42.0677 174.341 43.9563 172.1 44.5536C171.513 44.7117 170.895 44.8171 170.293 44.8435C167.565 44.9665 164.838 44.7469 162.111 45.0455C161.401 45.1246 161.122 44.7644 161.122 43.9738C161.122 41.4616 161.099 38.9405 161.061 36.4282C161.053 35.6728 161.486 35.6113 161.949 35.6113C163.587 35.6025 165.225 35.6113 166.862 35.6113V35.5937Z" fill="#E40429"/>
<path d="M241.42 51.2254C238.652 51.2432 235.884 51.5375 233.115 51.2432C232.018 51.1273 231.9 51.0203 232.398 49.9769C233.917 46.7665 235.478 43.574 236.998 40.3637C237.377 39.57 237.664 38.7317 238.044 37.947C238.188 37.6438 238.272 37.1533 238.694 37.1622C239.133 37.1711 239.31 37.6349 239.47 37.9827C239.909 38.9903 240.297 40.0248 240.719 41.0414C241.926 43.9575 243.066 46.9003 244.416 49.754C245.015 51.0203 244.855 51.2075 243.53 51.2165C243.175 51.2165 242.829 51.2165 242.475 51.2165C242.12 51.2165 241.774 51.2165 241.42 51.2165V51.2254Z" fill="#E40429"/>
</svg>
