<svg width="86" height="86" viewBox="0 0 86 86" fill="none" xmlns="http://www.w3.org/2000/svg">
<rect width="86" height="86" rx="30" fill="#EC1C24"/>
<path d="M31.5601 58V53.59L42.9001 42.88C43.7961 42.068 44.4541 41.34 44.8741 40.696C45.2941 40.052 45.5741 39.464 45.7141 38.932C45.8821 38.4 45.9661 37.91 45.9661 37.462C45.9661 36.286 45.5601 35.39 44.7481 34.774C43.9641 34.13 42.8021 33.808 41.2621 33.808C40.0301 33.808 38.8821 34.046 37.8181 34.522C36.7821 34.998 35.9001 35.74 35.1721 36.748L30.2161 33.556C31.3361 31.876 32.9041 30.546 34.9201 29.566C36.9361 28.586 39.2601 28.096 41.8921 28.096C44.0761 28.096 45.9801 28.46 47.6041 29.188C49.2561 29.888 50.5301 30.882 51.4261 32.17C52.3501 33.458 52.8121 34.998 52.8121 36.79C52.8121 37.742 52.6861 38.694 52.4341 39.646C52.2101 40.57 51.7341 41.55 51.0061 42.586C50.3061 43.622 49.2701 44.784 47.8981 46.072L38.4901 54.934L37.1881 52.456H53.7781V58H31.5601Z" fill="white"/>
</svg>
