<svg width="86" height="86" viewBox="0 0 86 86" fill="none" xmlns="http://www.w3.org/2000/svg">
<rect width="86" height="86" rx="30" fill="#EC1C24"/>
<path d="M41.8051 58.504C39.7611 58.504 37.7311 58.238 35.7151 57.706C33.6991 57.146 31.9911 56.362 30.5911 55.354L33.2371 50.146C34.3571 50.958 35.6591 51.602 37.1431 52.078C38.6271 52.554 40.1251 52.792 41.6371 52.792C43.3451 52.792 44.6891 52.456 45.6691 51.784C46.6491 51.112 47.1391 50.188 47.1391 49.012C47.1391 47.892 46.7051 47.01 45.8371 46.366C44.9691 45.722 43.5691 45.4 41.6371 45.4H38.5291V40.906L46.7191 31.624L47.4751 34.06H32.0611V28.6H52.6411V33.01L44.4931 42.292L41.0491 40.318H43.0231C46.6351 40.318 49.3651 41.13 51.2131 42.754C53.0611 44.378 53.9851 46.464 53.9851 49.012C53.9851 50.664 53.5511 52.218 52.6831 53.674C51.8151 55.102 50.4851 56.264 48.6931 57.16C46.9011 58.056 44.6051 58.504 41.8051 58.504Z" fill="white"/>
</svg>
