<svg width="60" height="60" viewBox="0 0 60 60" fill="none" xmlns="http://www.w3.org/2000/svg">
<path d="M29.0135 20.63V19.82C30.1735 19.41 31.0135 18.31 31.0135 17C31.0135 15.35 29.6635 14 28.0135 14C27.4635 14 27.0135 13.55 27.0135 13C27.0135 12.45 27.4635 12 28.0135 12C28.4035 12 28.7635 12.23 28.9235 12.58C29.1535 13.08 29.7535 13.3 30.2535 13.07C30.7535 12.84 30.9735 12.24 30.7435 11.74C30.4035 11 29.7635 10.45 29.0235 10.18V9.38C29.0235 8.83 28.5735 8.38 28.0235 8.38C27.4735 8.38 27.0235 8.83 27.0235 9.38V10.19C25.8635 10.6 25.0235 11.7 25.0235 13.01C25.0235 14.66 26.3735 16.01 28.0235 16.01C28.5735 16.01 29.0235 16.46 29.0235 17.01C29.0235 17.56 28.5735 18.01 28.0235 18.01C27.6635 18.01 27.3335 17.82 27.1535 17.51C26.8735 17.03 26.2635 16.87 25.7835 17.15C25.3035 17.43 25.1435 18.04 25.4235 18.52C25.7835 19.14 26.3635 19.58 27.0235 19.82V20.64C27.0235 21.19 27.4735 21.64 28.0235 21.64C28.5735 21.64 29.0135 21.18 29.0135 20.63V20.63Z" fill="white"/>
<path d="M49.6935 22.39C49.5535 21.86 49.0035 21.53 48.4735 21.68L43.3735 23.02C43.1135 23.09 42.8935 23.25 42.7635 23.48C42.6335 23.71 42.5935 23.98 42.6635 24.24L42.8135 24.82L39.7635 24.94C39.0435 24.97 38.3035 24.88 37.5635 24.69C35.2135 24.08 33.1035 23.66 31.1935 23.41C34.5935 22.12 37.0235 18.84 37.0235 15C37.0235 10.04 32.9835 6 28.0235 6C23.0635 6 19.0235 10.04 19.0235 15C19.0235 19.04 21.7035 22.47 25.3835 23.6C25.3235 23.62 25.2635 23.65 25.2135 23.67C25.1835 23.68 25.1635 23.67 25.1335 23.68L21.8135 24.69C20.7735 25.01 19.6935 25.14 18.6135 25.07L17.2335 24.98L17.4235 24.26C17.4935 24 17.4535 23.73 17.3235 23.5C17.1935 23.27 16.9735 23.1 16.7135 23.03L11.6235 21.67C11.3635 21.6 11.0935 21.64 10.8635 21.77C10.6335 21.9 10.4635 22.12 10.3935 22.38L6.03354 38.66C5.89354 39.19 6.20354 39.74 6.74354 39.88L11.8335 41.24C11.9135 41.26 12.0035 41.27 12.0935 41.27C12.2635 41.27 12.4435 41.22 12.5935 41.14C12.7935 41.02 12.9335 40.83 13.0235 40.61L13.2035 40.68C13.7735 40.91 14.2835 41.21 14.7735 41.53C14.5635 41.98 14.4435 42.47 14.4735 42.97C14.5135 43.77 14.8635 44.51 15.4635 45.04C15.8335 45.37 16.2635 45.58 16.7035 45.7C16.4435 46.74 16.7435 47.89 17.5935 48.65C18.1535 49.15 18.8535 49.42 19.5935 49.42H19.7535C19.9235 49.41 20.0835 49.38 20.2435 49.35C20.3935 49.86 20.6735 50.35 21.1035 50.73C21.6635 51.23 22.3635 51.5 23.1035 51.5H23.2635C23.2835 51.5 23.3035 51.49 23.3235 51.49C23.4335 52.09 23.7335 52.67 24.2235 53.11L24.3835 53.25C24.9235 53.74 25.6035 54 26.3235 54H26.4835C27.2535 53.96 27.9635 53.62 28.4835 53.04L28.8435 52.64C28.9335 52.54 28.9935 52.44 29.0635 52.33L29.9835 53.19C30.5135 53.69 31.1935 53.94 31.8735 53.94C32.5735 53.94 33.2735 53.67 33.8135 53.14C34.1635 52.8 34.4035 52.38 34.5335 51.92C35.4335 52.05 36.3835 51.78 37.1035 51.09C37.5635 50.65 37.8635 50.09 37.9835 49.47C38.1535 49.5 38.3335 49.51 38.5135 49.5C39.4035 49.48 40.2235 49.12 40.8335 48.47C41.2935 47.98 41.5935 47.38 41.6935 46.72C41.9635 46.77 42.2335 46.78 42.5135 46.76C43.3835 46.69 44.1835 46.29 44.7535 45.62C45.3235 44.95 45.5935 44.09 45.5135 43.21C45.4735 42.76 45.3435 42.34 45.1335 41.96L47.0235 40.62C47.1035 40.83 47.2435 41.01 47.4335 41.13C47.5835 41.22 47.7635 41.27 47.9335 41.27C48.0135 41.27 48.1035 41.26 48.1835 41.24L53.2835 39.9C53.8135 39.76 54.1335 39.21 53.9935 38.68L49.6935 22.39ZM39.8435 26.94L43.3335 26.8L46.4235 38.59L43.7035 40.52L31.7035 30.68C30.1835 29.44 27.9935 29.34 26.3735 30.44L22.7235 32.92C22.0535 33.38 21.1635 33.31 20.5635 32.76C20.3035 32.52 20.2235 32.14 20.3735 31.79C21.3335 29.47 22.8135 27.57 24.7835 26.14C25.6635 25.5 26.7735 25.15 27.9235 25.18C30.4735 25.22 33.4635 25.7 37.0635 26.64C37.9935 26.87 38.9235 26.98 39.8435 26.94V26.94ZM21.0135 15C21.0135 11.14 24.1535 8 28.0135 8C31.8735 8 35.0135 11.14 35.0135 15C35.0135 18.86 31.8735 22 28.0135 22C24.1535 22 21.0135 18.86 21.0135 15V15ZM8.22354 38.21L12.0635 23.87L15.2235 24.72L11.3835 39.06L8.22354 38.21ZM16.7235 42.15L16.9135 41.94H16.9235C16.9235 41.94 16.9235 41.94 16.9235 41.93L17.4135 41.39C17.6135 41.17 17.8835 41.06 18.1535 41.06C18.3935 41.06 18.6335 41.14 18.8235 41.32C19.0235 41.5 19.1435 41.74 19.1535 42.01C19.1635 42.28 19.0735 42.53 18.9035 42.73L18.2235 43.49C17.8535 43.9 17.2235 43.93 16.8135 43.57C16.6135 43.39 16.4935 43.15 16.4835 42.88C16.4535 42.61 16.5435 42.35 16.7235 42.15ZM19.6435 47.43C19.3835 47.44 19.1235 47.35 18.9235 47.17C18.5135 46.8 18.4835 46.17 18.8435 45.76L20.8035 43.58C20.9835 43.38 21.2235 43.26 21.4935 43.25H21.5435C21.7935 43.25 22.0235 43.34 22.2135 43.51C22.4135 43.69 22.5335 43.93 22.5435 44.2C22.5535 44.47 22.4635 44.72 22.2935 44.92L22.0035 45.25L21.9935 45.26L20.8835 46.5C20.8835 46.5 20.8835 46.51 20.8735 46.51L20.3435 47.1C20.1635 47.3 19.9135 47.42 19.6435 47.43V47.43ZM23.1635 49.5C22.9035 49.51 22.6435 49.42 22.4435 49.25C22.0335 48.88 22.0035 48.25 22.3635 47.84L23.4935 46.59C23.6735 46.4 23.9135 46.28 24.1735 46.27H24.2235C24.4735 46.27 24.7035 46.36 24.8935 46.53C25.3035 46.9 25.3335 47.53 24.9635 47.94L23.8535 49.18C23.6735 49.37 23.4335 49.49 23.1635 49.5V49.5ZM27.3435 51.3L26.9835 51.7C26.8235 51.88 26.6035 51.98 26.3635 51.99C26.1335 52 25.8935 51.92 25.7235 51.76L25.5635 51.62C25.1935 51.29 25.1635 50.73 25.4935 50.36L25.8535 49.96C26.0135 49.78 26.2335 49.68 26.4635 49.67H26.5135C26.7335 49.67 26.9435 49.75 27.1135 49.9L27.2735 50.04C27.6435 50.38 27.6735 50.94 27.3435 51.3ZM43.1935 44.34C42.9735 44.6 42.6635 44.76 42.3235 44.78C41.9835 44.8 41.6535 44.7 41.4035 44.48L40.5935 43.78C40.5835 43.77 40.5735 43.76 40.5535 43.75L35.2835 39.2C34.8635 38.84 34.2335 38.88 33.8735 39.3C33.5135 39.72 33.5635 40.35 33.9735 40.71L39.2635 45.28C39.5135 45.51 39.6635 45.82 39.6835 46.16C39.7035 46.51 39.5835 46.84 39.3335 47.1C39.0935 47.35 38.7735 47.49 38.4335 47.5C38.0935 47.51 37.7635 47.38 37.5135 47.14L37.1135 46.74C37.1035 46.73 37.0935 46.72 37.0835 46.71L32.9035 42.63C32.5135 42.25 31.8735 42.25 31.4935 42.65C31.1035 43.04 31.1135 43.68 31.5135 44.06L35.7135 48.16C35.9035 48.36 36.0135 48.62 36.0135 48.89C36.0135 49.18 35.9035 49.44 35.6935 49.64C35.2835 50.04 34.6435 50.03 34.2335 49.64L30.2435 45.76C29.8435 45.38 29.2135 45.39 28.8335 45.78C28.4535 46.18 28.4535 46.81 28.8535 47.19L32.3935 50.63C32.5435 50.77 32.6235 50.96 32.6235 51.17C32.6235 51.38 32.5435 51.56 32.4035 51.71C32.1135 52 31.6535 52 31.3535 51.72L29.4835 50C29.3435 49.46 29.0535 48.95 28.6135 48.56L28.4535 48.42C28.0835 48.09 27.6435 47.87 27.1735 47.77C27.3335 46.79 27.0135 45.75 26.2235 45.04C25.7435 44.61 25.1535 44.36 24.5335 44.3C24.5335 44.23 24.5435 44.17 24.5435 44.1C24.5035 43.3 24.1535 42.56 23.5535 42.03C22.8435 41.4 21.9235 41.17 21.0435 41.32C20.8935 40.75 20.5935 40.24 20.1435 39.84C18.9435 38.76 17.1135 38.84 15.9935 39.98C15.3635 39.55 14.6935 39.15 13.9235 38.84L13.5435 38.69L16.6835 26.96L18.4635 27.07C18.6935 27.08 18.9235 27.09 19.1535 27.09C19.7635 27.09 20.3835 27.03 20.9835 26.93C19.9635 28.13 19.1335 29.49 18.5035 31.01C18.0435 32.12 18.3235 33.41 19.1935 34.21C20.4735 35.39 22.3835 35.54 23.8335 34.56L27.4835 32.08C28.3835 31.47 29.5935 31.53 30.4235 32.21L43.0135 42.54C43.2735 42.76 43.4435 43.06 43.4735 43.4C43.5235 43.75 43.4135 44.08 43.1935 44.34V44.34ZM48.6235 39.06L44.8535 24.7L48.0135 23.87L51.7835 38.23L48.6235 39.06Z" fill="white"/>
</svg>
