<svg width="60" height="60" viewBox="0 0 60 60" fill="none" xmlns="http://www.w3.org/2000/svg">
<path d="M20.67 26.15C20.27 26.29 20 26.67 20 27.09V28.91C20 29.33 20.27 29.71 20.67 29.85L22.92 30.65L23.13 31.15L22.1 33.32C21.92 33.7 22 34.16 22.3 34.46L23.59 35.75C23.89 36.05 24.34 36.13 24.73 35.95L26.89 34.92L27.39 35.13L28.19 37.38C28.33 37.78 28.71 38.05 29.13 38.05H30.95C31.37 38.05 31.75 37.78 31.89 37.38L32.69 35.13L33.19 34.92L35.35 35.95C35.73 36.13 36.19 36.05 36.49 35.75L37.78 34.46C38.08 34.16 38.16 33.71 37.98 33.32L36.95 31.16L37.16 30.66L39.41 29.86C39.81 29.72 40.08 29.34 40.08 28.92V27.1C40.08 26.68 39.81 26.3 39.41 26.16L37.16 25.36L36.95 24.86L37.98 22.7C38.16 22.32 38.08 21.86 37.78 21.56L36.49 20.27C36.19 19.97 35.74 19.89 35.35 20.07L33.19 21.1L32.69 20.89L31.89 18.64C31.75 18.24 31.37 17.97 30.95 17.97H29.13C28.71 17.97 28.33 18.24 28.19 18.64L27.39 20.89L26.89 21.1L24.73 20.07C24.35 19.89 23.89 19.97 23.59 20.27L22.3 21.56C22 21.86 21.92 22.31 22.1 22.7L23.13 24.86L22.92 25.36L20.67 26.15ZM24.01 27.08C24.28 26.98 24.49 26.78 24.6 26.52L25.15 25.19C25.26 24.93 25.25 24.63 25.13 24.38L24.21 22.46L24.5 22.17L26.42 23.08C26.68 23.2 26.97 23.21 27.23 23.1L28.55 22.55C28.81 22.44 29.02 22.23 29.11 21.96L29.82 19.95H30.23L30.94 21.96C31.03 22.23 31.24 22.44 31.5 22.55L32.82 23.1C33.08 23.21 33.38 23.2 33.63 23.08L35.55 22.17L35.84 22.46L34.92 24.38C34.8 24.64 34.79 24.93 34.9 25.19L35.45 26.52C35.56 26.78 35.77 26.98 36.04 27.08L38.05 27.79V28.2L36.04 28.91C35.77 29.01 35.56 29.21 35.45 29.47L34.9 30.8C34.79 31.06 34.8 31.36 34.92 31.61L35.84 33.53L35.55 33.82L33.63 32.91C33.37 32.79 33.08 32.78 32.82 32.89L31.49 33.44C31.23 33.55 31.03 33.76 30.93 34.03L30.22 36.04H29.81L29.1 34.03C29.01 33.76 28.8 33.55 28.54 33.44L27.21 32.89C26.95 32.78 26.65 32.79 26.4 32.91L24.48 33.82L24.19 33.53L25.11 31.61C25.23 31.36 25.24 31.06 25.13 30.8L24.58 29.47C24.47 29.21 24.26 29 23.99 28.91L22 28.2V27.79L24.01 27.08Z" fill="white"/>
<path d="M30.04 32C32.25 32 34.04 30.21 34.04 28C34.04 25.79 32.25 24 30.04 24C27.83 24 26.04 25.79 26.04 28C26.04 30.21 27.83 32 30.04 32ZM30.04 26C31.14 26 32.04 26.9 32.04 28C32.04 29.1 31.14 30 30.04 30C28.94 30 28.04 29.1 28.04 28C28.04 26.9 28.94 26 30.04 26Z" fill="white"/>
<path d="M10 47.74V47.84C10 50.05 11.79 51.84 14 51.84H17C17.55 51.84 18 51.39 18 50.84V34.84C18 34.29 17.55 33.84 17 33.84H14C11.79 33.84 10 35.63 10 37.84V31C10 19.97 18.97 11 30 11C41.03 11 50 19.97 50 31V37.84C50 35.63 48.21 33.84 46 33.84H43C42.45 33.84 42 34.29 42 34.84V50.84C42 51.39 42.45 51.84 43 51.84H46C48.21 51.84 50 50.05 50 47.84V47.74C52.28 47.28 54 45.26 54 42.84C54 41.21 53.21 39.78 52 38.87V31C52 18.87 42.13 9 30 9C17.87 9 8 18.87 8 31V38.87C6.79 39.78 6 41.22 6 42.84C6 45.25 7.72 47.27 10 47.74ZM48 47.84C48 48.94 47.1 49.84 46 49.84H44V35.84H46C47.1 35.84 48 36.74 48 37.84V38.84V46.84V47.84ZM50 45.67V40.01C51.16 40.42 52 41.53 52 42.84C52 44.15 51.16 45.26 50 45.67ZM12 37.84C12 36.74 12.9 35.84 14 35.84H16V49.84H14C12.9 49.84 12 48.94 12 47.84V46.84V38.84V37.84ZM10 40.01V45.67C8.84 45.26 8 44.15 8 42.84C8 41.53 8.84 40.42 10 40.01Z" fill="white"/>
</svg>
