<svg width="60" height="60" viewBox="0 0 60 60" fill="none" xmlns="http://www.w3.org/2000/svg">
<path d="M31 21C31 20.4477 30.5523 20 30 20C29.4477 20 29 20.4477 29 21L31 21ZM29.2929 39.7071C29.6834 40.0976 30.3166 40.0976 30.7071 39.7071L37.0711 33.3431C37.4616 32.9526 37.4616 32.3195 37.0711 31.9289C36.6805 31.5384 36.0474 31.5384 35.6569 31.9289L30 37.5858L24.3431 31.9289C23.9526 31.5384 23.3195 31.5384 22.9289 31.9289C22.5384 32.3195 22.5384 32.9526 22.9289 33.3431L29.2929 39.7071ZM29 21L29 39L31 39L31 21L29 21Z" fill="white"/>
<circle cx="30" cy="30" r="29" stroke="white" stroke-width="2"/>
</svg>
