<svg width="60" height="60" viewBox="0 0 60 60" fill="none" xmlns="http://www.w3.org/2000/svg">
<path d="M30 24.5C24.49 24.5 20 28.99 20 34.5C20 40.01 24.49 44.5 30 44.5C35.51 44.5 40 40.01 40 34.5C40 28.99 35.51 24.5 30 24.5ZM30 42.5C25.59 42.5 22 38.91 22 34.5C22 30.09 25.59 26.5 30 26.5C34.41 26.5 38 30.09 38 34.5C38 38.91 34.41 42.5 30 42.5Z" fill="white"/>
<path d="M30 33.5C29.45 33.5 29 33.05 29 32.5C29 31.95 29.45 31.5 30 31.5C30.39 31.5 30.75 31.73 30.91 32.08C31.14 32.58 31.74 32.8 32.24 32.57C32.74 32.34 32.96 31.74 32.73 31.24C32.39 30.5 31.75 29.95 31.01 29.68V28.87C31.01 28.32 30.56 27.87 30.01 27.87C29.46 27.87 29.01 28.32 29.01 28.87V29.68C27.85 30.09 27.01 31.19 27.01 32.5C27.01 34.15 28.36 35.5 30.01 35.5C30.56 35.5 31.01 35.95 31.01 36.5C31.01 37.05 30.56 37.5 30.01 37.5C29.65 37.5 29.32 37.31 29.14 37C28.86 36.52 28.25 36.36 27.77 36.64C27.29 36.92 27.13 37.53 27.41 38.01C27.77 38.63 28.35 39.07 29.01 39.31V40.13C29.01 40.68 29.46 41.13 30.01 41.13C30.56 41.13 31.01 40.68 31.01 40.13V39.32C32.17 38.91 33.01 37.81 33.01 36.5C33 34.85 31.65 33.5 30 33.5V33.5Z" fill="white"/>
<path d="M49 16.5H38V11.81C38 9.98 36.51 8.5 34.69 8.5H25.32C23.49 8.5 22 9.99 22 11.81V16.5H11C8.24 16.5 6 18.74 6 21.5V46.5C6 49.26 8.24 51.5 11 51.5H49C51.76 51.5 54 49.26 54 46.5V21.5C54 18.74 51.76 16.5 49 16.5ZM24 11.81C24 11.09 24.59 10.5 25.31 10.5H34.68C35.4 10.5 35.99 11.09 35.99 11.81V16.5H24V11.81ZM52 46.5C52 48.15 50.65 49.5 49 49.5H11C9.35 49.5 8 48.15 8 46.5V21.5C8 19.85 9.35 18.5 11 18.5H23H37H49C50.65 18.5 52 19.85 52 21.5V46.5Z" fill="white"/>
</svg>
