<svg width="60" height="60" viewBox="0 0 60 60" fill="none" xmlns="http://www.w3.org/2000/svg">
<path d="M16 36H17.15L19.88 52.3C20.03 53.27 20.88 54 21.86 54H38.14C39.12 54 39.97 53.27 40.12 52.31L42.85 36H44C44.55 36 45 35.55 45 35V31C45 30.45 44.55 30 44 30H31V28.54L33.44 25.98C39.35 25.82 42.48 22.56 42.48 16.51C42.48 15.96 42.03 15.51 41.48 15.51C35.42 15.51 32.16 18.65 32.01 24.58L31 25.65V9.41L32.12 10.53C32.32 10.73 32.57 10.82 32.83 10.82C33.09 10.82 33.34 10.72 33.54 10.53C33.93 10.14 33.93 9.51 33.54 9.12L30.71 6.29C30.53 6.11 30.28 6 30 6C29.72 6 29.47 6.11 29.29 6.29L26.46 9.12C26.07 9.51 26.07 10.14 26.46 10.53C26.85 10.92 27.48 10.92 27.87 10.53L29 9.41V25.64L27.99 24.58C27.84 18.65 24.58 15.51 18.52 15.51C17.97 15.51 17.52 15.96 17.52 16.51C17.52 22.56 20.65 25.82 26.56 25.98L29 28.54V30H16C15.45 30 15 30.45 15 31V35C15 35.55 15.45 36 16 36V36ZM40.45 17.55C40.16 21.61 38.1 23.68 34.03 23.97C34.32 19.9 36.39 17.84 40.45 17.55V17.55ZM19.55 17.55C23.61 17.84 25.68 19.9 25.97 23.97C21.9 23.68 19.84 21.61 19.55 17.55V17.55ZM38.14 52V53V52L21.86 51.98L19.18 36H40.82L38.14 52ZM17 32H43V34H42H18H17V32Z" fill="white"/>
<path d="M51 36C51.55 36 52 35.55 52 35V21C52 20.69 51.85 20.39 51.6 20.2L48 17.5V12.41L49.12 13.53C49.32 13.73 49.57 13.82 49.83 13.82C50.09 13.82 50.34 13.72 50.54 13.53C50.93 13.14 50.93 12.51 50.54 12.12L47.71 9.29C47.53 9.11 47.28 9 47 9C46.72 9 46.47 9.11 46.29 9.29L43.46 12.12C43.07 12.51 43.07 13.14 43.46 13.53C43.85 13.92 44.48 13.92 44.87 13.53L46 12.41V18C46 18.31 46.15 18.61 46.4 18.8L50 21.5V35C50 35.55 50.45 36 51 36Z" fill="white"/>
<path d="M8.4 20.2C8.15 20.39 8 20.69 8 21V35C8 35.55 8.45 36 9 36C9.55 36 10 35.55 10 35V21.5L13.6 18.8C13.85 18.61 14 18.32 14 18V12.41L15.12 13.53C15.32 13.73 15.57 13.82 15.83 13.82C16.09 13.82 16.34 13.72 16.54 13.53C16.93 13.14 16.93 12.51 16.54 12.12L13.71 9.29C13.53 9.11 13.28 9 13 9C12.72 9 12.47 9.11 12.29 9.29L9.46 12.12C9.07 12.51 9.07 13.14 9.46 13.53C9.85 13.92 10.48 13.92 10.87 13.53L12 12.41V17.5L8.4 20.2Z" fill="white"/>
</svg>
