<svg width="179" height="50" fill="none" xmlns="http://www.w3.org/2000/svg"><path fill-rule="evenodd" clip-rule="evenodd" d="M38.75.405a1.336 1.336 0 0 1 1.916 1.861 39.696 39.696 0 0 0-4.014 4.86c.58.87 2.749 4.43 1.454 7.356-.671 1.516-2.09 2.512-4.223 2.971.378 2.044 1.083 4.213 1.777 6.342 1.007 3.088 1.955 6.006 1.955 8.592 0 3.66-2.135 5.574-4.236 5.574-1.943 0-4.05-1.64-4.05-5.24 0-4.52-1.16-5.819-2.162-6.192v17.795h2.893c.738 0 1.28.514 1.28 1.252v3.005c0 .737-.542 1.419-1.28 1.419H2.347c-.737 0-1.39-.681-1.39-1.419v-3.005c0-.738.653-1.252 1.39-1.252H5.13V9.683c0-.738.653-1.252 1.391-1.252h1.447V7.01c0-.737.654-1.252 1.391-1.252h13.523c.737 0 1.28.515 1.28 1.253V8.43h1.725c.737 0 1.28.514 1.28 1.252v14.112C32 24.596 32 30.623 32 32.712v.01c0 1.686.714 2.568 1.392 2.568.755 0 1.557-1.017 1.557-2.903 0-2.162-.887-4.884-1.826-7.765-1.334-4.091-2.713-8.322-1.99-12.102.972-5.075 6.515-10.983 7.617-12.115ZM22.827 23.623c.738 0 1.336-.598 1.336-1.336v-9.516c0-.737-.598-1.335-1.336-1.335H9.303c-.737 0-1.335.598-1.335 1.335v9.516c0 .738.598 1.336 1.335 1.336h13.523Zm10.782-8.846c1.08-.276 1.771-.736 2.055-1.374.461-1.036-.06-2.576-.611-3.7-.64 1.186-1.103 2.322-1.294 3.32a9.095 9.095 0 0 0-.15 1.754ZM15.405 40.445V42h1.512v-1.555c1.348-.104 2.363-.478 3.043-1.124.693-.656 1.04-1.457 1.04-2.402 0-.449-.082-.852-.246-1.21a2.646 2.646 0 0 0-.605-.863c-.24-.23-.56-.438-.964-.622a7.455 7.455 0 0 0-1.077-.45 19.63 19.63 0 0 0-1.191-.328v-2.972c.995.184 1.84.587 2.533 1.21l1.266-1.504c-1.008-.887-2.274-1.406-3.8-1.556V27h-1.511v1.607c-1.21.092-2.18.45-2.912 1.072-.73.622-1.096 1.376-1.096 2.263 0 .542.107 1.014.321 1.417.227.392.555.715.983.968.429.242.838.432 1.23.57.39.127.881.26 1.474.398v3.335c-1.248-.173-2.307-.685-3.176-1.538L11 38.648c1.059 1.07 2.527 1.67 4.405 1.797Zm3.345-3.336c0 .358-.15.68-.453.968-.303.288-.763.478-1.38.57v-2.99c.592.162 1.046.358 1.36.588.316.22.473.507.473.864Zm-3.345-4.026c-1.16-.3-1.74-.726-1.74-1.279 0-.38.152-.697.454-.95.315-.265.744-.42 1.286-.467v2.696Z" fill="#FFB400"/><path d="M67.946 28.091c0 2.38-.451 4.403-1.353 6.072-.895 1.67-2.116 2.944-3.665 3.825-1.54.874-3.274 1.31-5.199 1.31-1.938 0-3.679-.44-5.22-1.32-1.541-.881-2.759-2.156-3.654-3.825-.895-1.67-1.342-3.69-1.342-6.062 0-2.38.447-4.403 1.342-6.073.895-1.669 2.113-2.94 3.654-3.813 1.541-.881 3.282-1.321 5.22-1.321 1.925 0 3.658.44 5.2 1.32 1.548.874 2.77 2.145 3.664 3.814.902 1.67 1.353 3.694 1.353 6.073Zm-4.677 0c0-1.541-.23-2.84-.692-3.9-.455-1.057-1.098-1.86-1.929-2.407-.83-.547-1.804-.82-2.919-.82s-2.088.273-2.919.82c-.83.547-1.477 1.35-1.939 2.408-.454 1.058-.681 2.358-.681 3.899s.227 2.84.681 3.9c.462 1.057 1.108 1.86 1.94 2.407.83.547 1.803.82 2.918.82 1.115 0 2.089-.273 2.92-.82.83-.547 1.473-1.35 1.928-2.408.461-1.058.692-2.358.692-3.899ZM71.278 39V22.636h4.538V39h-4.538Zm2.28-18.473a2.466 2.466 0 0 1-1.737-.671c-.476-.455-.714-.998-.714-1.63 0-.625.238-1.161.714-1.609a2.445 2.445 0 0 1 1.737-.682c.674 0 1.25.228 1.726.682.482.448.724.984.724 1.609 0 .632-.242 1.175-.724 1.63-.476.447-1.052.671-1.726.671ZM83.99 17.182V39h-4.538V17.182h4.538ZM93.823 20.985v-3.803h17.919v3.803h-6.679V39h-4.56V20.985h-6.68ZM112.909 39V22.636h4.4v2.855h.17c.298-1.015.799-1.782 1.502-2.3.703-.526 1.513-.789 2.429-.789.227 0 .472.014.735.043.263.028.494.067.693.117v4.027a5.927 5.927 0 0 0-.885-.17 7.93 7.93 0 0 0-1.033-.075c-.668 0-1.264.145-1.79.437-.518.284-.93.681-1.235 1.193-.299.511-.448 1.1-.448 1.768V39h-4.538ZM129.382 39.309c-1.044 0-1.975-.181-2.792-.543a4.499 4.499 0 0 1-1.939-1.63c-.468-.725-.703-1.627-.703-2.706 0-.91.167-1.673.501-2.29a4.05 4.05 0 0 1 1.364-1.492 6.606 6.606 0 0 1 1.96-.852 14.962 14.962 0 0 1 2.322-.405c.952-.1 1.719-.192 2.301-.277.583-.093 1.005-.228 1.268-.405.263-.178.394-.44.394-.788v-.064c0-.675-.213-1.197-.639-1.566-.419-.37-1.015-.554-1.79-.554-.816 0-1.466.18-1.949.543-.483.355-.803.802-.959 1.342l-4.197-.34c.213-.995.632-1.854 1.257-2.579.625-.731 1.431-1.292 2.418-1.683.994-.398 2.145-.597 3.452-.597.909 0 1.779.107 2.61.32.838.213 1.58.543 2.226.99a4.807 4.807 0 0 1 1.545 1.727c.377.696.565 1.53.565 2.503V39h-4.304v-2.27h-.128a4.614 4.614 0 0 1-1.055 1.354c-.44.383-.969.685-1.587.905-.618.214-1.332.32-2.141.32Zm1.299-3.132c.668 0 1.257-.132 1.769-.394.511-.27.912-.632 1.204-1.087.291-.454.436-.97.436-1.545v-1.736a2.42 2.42 0 0 1-.586.256c-.241.07-.514.138-.82.202-.305.057-.611.11-.916.16l-.831.117a5.614 5.614 0 0 0-1.396.373c-.397.17-.706.401-.926.692-.221.284-.331.64-.331 1.066 0 .617.224 1.09.671 1.416.455.32 1.03.48 1.726.48ZM148.148 39.266c-1.243 0-2.369-.32-3.378-.958-1.001-.647-1.796-1.595-2.386-2.845-.582-1.257-.874-2.798-.874-4.623 0-1.875.302-3.434.906-4.677.604-1.25 1.406-2.184 2.408-2.802a6.168 6.168 0 0 1 3.313-.938c.916 0 1.68.157 2.29.47.618.305 1.115.688 1.492 1.15.383.454.675.902.873 1.342h.139v-8.203h4.528V39h-4.475v-2.62h-.192a5.83 5.83 0 0 1-.905 1.352c-.384.44-.884.806-1.502 1.098-.611.29-1.357.436-2.237.436Zm1.438-3.611c.731 0 1.349-.199 1.853-.597.512-.404.902-.97 1.172-1.694.277-.724.416-1.573.416-2.546 0-.973-.135-1.818-.405-2.535-.27-.718-.661-1.272-1.172-1.662-.511-.39-1.133-.586-1.864-.586-.746 0-1.375.202-1.886.607-.511.405-.898.966-1.161 1.683-.263.718-.394 1.549-.394 2.493 0 .952.131 1.794.394 2.525.27.724.657 1.293 1.161 1.705.511.404 1.14.607 1.886.607ZM168.647 39.32c-1.683 0-3.132-.341-4.346-1.023a6.998 6.998 0 0 1-2.791-2.92c-.654-1.263-.981-2.758-.981-4.484 0-1.683.327-3.16.981-4.432.653-1.271 1.573-2.262 2.759-2.972 1.193-.71 2.592-1.066 4.197-1.066 1.08 0 2.085.174 3.015.522.938.341 1.754.856 2.45 1.545.704.689 1.25 1.556 1.641 2.6.391 1.037.586 2.251.586 3.643v1.247h-13.817v-2.813h9.545c0-.653-.142-1.232-.426-1.737a3.048 3.048 0 0 0-1.183-1.182c-.497-.291-1.076-.437-1.736-.437-.689 0-1.3.16-1.833.48a3.361 3.361 0 0 0-1.235 1.267 3.572 3.572 0 0 0-.458 1.758v2.674c0 .81.149 1.51.447 2.099.305.59.735 1.044 1.289 1.364.554.32 1.211.479 1.971.479.504 0 .966-.071 1.385-.213a2.872 2.872 0 0 0 1.076-.64c.298-.284.525-.632.682-1.043l4.197.277a5.735 5.735 0 0 1-1.31 2.642c-.654.745-1.499 1.328-2.536 1.747-1.03.412-2.219.618-3.569.618Z" fill="#FFB400"/></svg>