<svg width="534" height="534" viewBox="0 0 534 534" fill="none" xmlns="http://www.w3.org/2000/svg">
<path d="M120.864 267L60.7121 327.152L0.409058 267L60.5606 206.848L120.864 267ZM267.076 120.788L370.258 223.97L430.409 163.818L267.076 0.333344L103.591 163.818L163.742 223.97L267.076 120.788ZM473.439 206.848L413.288 267L473.439 327.152L533.591 267L473.439 206.848ZM267.076 413.212L163.894 310.03L103.742 370.182L267.076 533.667L430.409 370.182L370.258 310.03L267.076 413.212ZM267.076 327.152L327.227 267L267.076 206.848L206.773 267L267.076 327.152Z" fill="#F0B90B"/>
</svg>
