<svg width="120" height="95" viewBox="0 0 120 95" fill="none" xmlns="http://www.w3.org/2000/svg">
<path d="M56 0.131644C66.4 -0.568356 77 1.53162 86.3 6.23162C100.1 13.0316 111.1 25.2316 116.2 39.6316C118.5 46.0316 119.7 52.7316 119.7 59.5316V84.6316C119.7 85.6316 119.7 86.7316 119.5 87.7316C118.9 90.2316 117.1 92.5316 114.7 93.6316C113 94.4316 111.1 94.5316 109.4 94.2316C105.6 93.5316 102.6 89.9316 102.6 86.0316C102.6 78.2316 102.6 70.4316 102.6 62.6316C102.7 60.4316 102.7 58.0316 101.5 56.1316C99.6 52.5316 94.8 50.8316 91.1 52.3316C87.9 53.4316 85.6 56.7316 85.5 60.1316C85.5 68.0316 85.5 75.9316 85.5 83.8316C85.5 85.3316 85.6 86.8316 85.1 88.2316C84.3 91.0316 82 93.2316 79.2 94.0316C75.5 95.0316 71.3 93.4316 69.5 90.0316C68.2 88.0316 68.3 85.5316 68.4 83.2316C68.4 75.3316 68.4 67.5316 68.4 59.6316C68.3 55.6316 65 52.0316 61.1 51.5316C58.5 51.1316 55.8 52.0316 53.9 53.8316C52.2 55.4316 51.3 57.7316 51.3 60.0316V82.9316C51.3 84.8316 51.5 86.8316 50.8 88.6316C49.7 91.9316 46.4 94.3316 42.9 94.2316C39.3 94.4316 35.8 91.9316 34.7 88.6316C34.1 86.9316 34.2 85.2316 34.2 83.4316C34.2 75.5316 34.2 67.6316 34.2 59.7316C34.2 55.8316 31.1 52.2316 27.3 51.5316C23.8 50.8316 20 52.5316 18.2 55.7316C17.5 57.0316 17.1 58.5316 17.1 60.0316V85.7316C17.1 88.2316 16 90.7316 14.1 92.3316C11.2 94.8316 6.5 95.0316 3.5 92.7316C1.3 91.2316 0 88.6316 0 85.9316V59.9316C0 50.1316 2.5 40.3316 7.2 31.6316C11 24.5316 16.3 18.2316 22.6 13.2316C31.9 5.43162 43.8 0.831644 56 0.131644Z" fill="#1E85B8"/>
</svg>
