<svg width="300" height="75" viewBox="0 0 300 75" fill="none" xmlns="http://www.w3.org/2000/svg">
<g clip-path="url(#clip0_272_46)">
<path d="M256.678 -503H44.3422C21.2064 -503 2.43945 -485.447 2.43945 -463.808V36.0484C2.43945 57.6873 21.2064 75.24 44.3422 75.24H256.678C279.814 75.24 298.581 57.6873 298.581 36.0484V-463.808C298.581 -485.447 279.814 -503 256.678 -503ZM294.515 34.6764C294.515 54.9731 276.912 71.4372 255.211 71.4372H45.8091C24.1083 71.4372 6.50536 54.9731 6.50536 34.6764V-462.436C6.50536 -482.733 24.1083 -499.197 45.8091 -499.197H255.195C276.896 -499.197 294.499 -482.733 294.499 -462.436V34.6764H294.515Z" fill="black"/>
<path d="M255.196 -498.934H45.8096C24.1088 -498.934 6.50586 -482.485 6.50586 -462.207V34.4489C6.50586 54.727 24.1088 71.1759 45.8096 71.1759H255.196C276.897 71.1759 294.499 54.727 294.499 34.4489V-462.207C294.499 -482.485 276.897 -498.934 255.196 -498.934ZM292.459 33.3464C292.459 53.1923 275.238 69.2837 254 69.2837H46.9895C25.7511 69.2837 8.53084 53.1923 8.53084 33.3464V-461.105C8.53084 -480.951 25.7511 -497.027 46.9895 -497.027H254.016C275.254 -497.027 292.474 -480.936 292.474 -461.09V33.3464H292.459Z" fill="#1A1A1A"/>
<path d="M254.897 71.52H45.4951C23.7146 71.52 6.00001 54.9662 6.00001 34.5979V-462.078C5.98407 -482.431 23.7146 -499 45.4951 -499H254.897C276.678 -499 294.392 -482.446 294.392 -462.093V34.5979C294.392 54.9513 276.678 71.52 254.897 71.52ZM45.4951 -498.628C23.9378 -498.628 6.38268 -482.223 6.38268 -462.078V34.5979C6.38268 54.7427 23.9219 71.1475 45.4791 71.1475H254.897C276.454 71.1475 293.994 54.7576 293.994 34.5979V-462.078C293.994 -482.223 276.454 -498.613 254.897 -498.613H45.4951V-498.628ZM253.701 69.6128H46.675C25.3569 69.6128 8.02499 53.4016 8.02499 33.4953V-460.975C8.02499 -480.882 25.3729 -497.093 46.675 -497.093H253.701C275.019 -497.093 292.351 -480.882 292.351 -460.975V33.4953C292.351 53.4165 275.003 69.6128 253.701 69.6128ZM46.675 -496.72C25.5801 -496.72 8.42361 -480.688 8.42361 -460.975V33.4953C8.42361 53.2079 25.5801 69.2403 46.675 69.2403H253.701C274.796 69.2403 291.953 53.2079 291.953 33.4953V-460.975C291.953 -480.688 274.796 -496.72 253.701 -496.72H46.675Z" fill="black"/>
<g style="mix-blend-mode:screen" opacity="0.5">
<path d="M13.6172 72.7557C22.1476 74.0379 33.1814 75.0356 46.1444 75.0061L247.494 74.9391C273.692 74.6735 296.748 72.2622 297.641 67.1338C297.641 66.5678 299.442 71.428 280.723 73.5604C271.826 74.6333 258.688 75.1027 250.795 75.1295C237.864 75.1698 67.2712 75.2154 46.3677 75.1295C28.8603 75.0571 20.6329 73.8689 13.6172 72.7557Z" fill="white"/>
</g>
<path d="M165.155 74.1406H135.848C135.258 74.1406 134.732 74.2204 134.573 74.316L133.281 74.8741C133.042 75.0336 133.68 75.193 134.557 75.193H166.462C167.339 75.193 167.977 75.0336 167.738 74.8741L166.446 74.316C166.287 74.2044 165.761 74.1406 165.171 74.1406H165.155Z" fill="black"/>
</g>
<defs>
<clipPath id="clip0_272_46">
<rect width="300" height="75" fill="white"/>
</clipPath>
</defs>
</svg>