<svg width="300" height="1" viewBox="0 0 300 1" fill="none" xmlns="http://www.w3.org/2000/svg">
<g clip-path="url(#clip0_276_2)">
<path d="M256.678 -241H44.3422C21.2064 -241 2.43945 -223.447 2.43945 -201.808V298.048C2.43945 319.687 21.2064 337.24 44.3422 337.24H256.678C279.814 337.24 298.581 319.687 298.581 298.048V-201.808C298.581 -223.447 279.814 -241 256.678 -241ZM294.515 296.676C294.515 316.973 276.912 333.437 255.211 333.437H45.8091C24.1083 333.437 6.50536 316.973 6.50536 296.676V-200.436C6.50536 -220.733 24.1083 -237.197 45.8091 -237.197H255.195C276.896 -237.197 294.499 -220.733 294.499 -200.436V296.676H294.515Z" fill="black"/>
<path d="M255.196 -236.934H45.8096C24.1088 -236.934 6.50586 -220.485 6.50586 -200.207V296.449C6.50586 316.727 24.1088 333.176 45.8096 333.176H255.196C276.897 333.176 294.499 316.727 294.499 296.449V-200.207C294.499 -220.485 276.897 -236.934 255.196 -236.934ZM292.459 295.346C292.459 315.192 275.238 331.284 254 331.284H46.9895C25.7511 331.284 8.53084 315.192 8.53084 295.346V-199.105C8.53084 -218.951 25.7511 -235.027 46.9895 -235.027H254.016C275.254 -235.027 292.474 -218.936 292.474 -199.09V295.346H292.459Z" fill="#1A1A1A"/>
<path d="M254.897 333.52H45.4951C23.7146 333.52 6.00001 316.966 6.00001 296.598V-200.078C5.98407 -220.431 23.7146 -237 45.4951 -237H254.897C276.678 -237 294.392 -220.446 294.392 -200.093V296.598C294.392 316.951 276.678 333.52 254.897 333.52ZM45.4951 -236.628C23.9378 -236.628 6.38268 -220.223 6.38268 -200.078V296.598C6.38268 316.743 23.9219 333.148 45.4791 333.148H254.897C276.454 333.148 293.994 316.758 293.994 296.598V-200.078C293.994 -220.223 276.454 -236.613 254.897 -236.613H45.4951V-236.628ZM253.701 331.613H46.675C25.3569 331.613 8.02499 315.402 8.02499 295.495V-198.975C8.02499 -218.882 25.3729 -235.093 46.675 -235.093H253.701C275.019 -235.093 292.351 -218.882 292.351 -198.975V295.495C292.351 315.417 275.003 331.613 253.701 331.613ZM46.675 -234.72C25.5801 -234.72 8.42361 -218.688 8.42361 -198.975V295.495C8.42361 315.208 25.5801 331.24 46.675 331.24H253.701C274.796 331.24 291.953 315.208 291.953 295.495V-198.975C291.953 -218.688 274.796 -234.72 253.701 -234.72H46.675Z" fill="black"/>
</g>
<defs>
<clipPath id="clip0_276_2">
<rect width="300" height="1" fill="white"/>
</clipPath>
</defs>
</svg>