<svg width="300" height="240" viewBox="0 0 300 240" fill="none" xmlns="http://www.w3.org/2000/svg">
<g clip-path="url(#clip0_272_2)">
<path d="M256.678 0H44.3422C21.2064 0 2.43945 17.5527 2.43945 39.1916V539.048C2.43945 560.687 21.2064 578.24 44.3422 578.24H256.678C279.814 578.24 298.581 560.687 298.581 539.048V39.1916C298.581 17.5527 279.814 0 256.678 0ZM294.515 537.676C294.515 557.973 276.912 574.437 255.211 574.437H45.8091C24.1083 574.437 6.50536 557.973 6.50536 537.676V40.5636C6.50536 20.2669 24.1083 3.80284 45.8091 3.80284H255.195C276.896 3.80284 294.499 20.2669 294.499 40.5636V537.676H294.515Z" fill="black"/>
<g style="mix-blend-mode:screen" opacity="0.7">
<path d="M13.6172 14.4619C22.1476 6.8403 33.1814 0.908867 46.1444 1.06831L247.494 1.46693C273.692 3.04546 296.748 17.3798 297.641 47.8661C297.641 51.2304 299.442 22.3386 280.723 9.66252C271.826 3.28463 258.688 0.494304 250.795 0.334856C237.864 0.0956855 67.2712 -0.175375 46.3677 0.334856C28.8603 0.765364 20.6488 7.82888 13.6172 14.4619Z" fill="white"/>
</g>
<path d="M255.196 4.06592H45.8096C24.1088 4.06592 6.50586 20.5148 6.50586 40.7929V537.449C6.50586 557.727 24.1088 574.176 45.8096 574.176H255.196C276.897 574.176 294.499 557.727 294.499 537.449V40.7929C294.499 20.5148 276.897 4.06592 255.196 4.06592ZM292.459 536.346C292.459 556.192 275.238 572.284 254 572.284H46.9895C25.7511 572.284 8.53084 556.192 8.53084 536.346V41.8955C8.53084 22.0495 25.7511 5.97304 46.9895 5.97304H254.016C275.254 5.97304 292.474 22.0644 292.474 41.9104V536.346H292.459Z" fill="#1A1A1A"/>
<path d="M254.897 574.52H45.4951C23.7146 574.52 6.00001 557.966 6.00001 537.598V40.9221C5.98407 20.5688 23.7146 4 45.4951 4H254.897C276.678 4 294.392 20.5539 294.392 40.9072V537.598C294.392 557.951 276.678 574.52 254.897 574.52ZM45.4951 4.3725C23.9378 4.3725 6.38268 20.7774 6.38268 40.9221V537.598C6.38268 557.743 23.9219 574.148 45.4791 574.148H254.897C276.454 574.148 293.994 557.758 293.994 537.598V40.9221C293.994 20.7774 276.454 4.3874 254.897 4.3874H45.4951V4.3725ZM253.701 572.613H46.675C25.3569 572.613 8.02499 556.402 8.02499 536.495V42.0247C8.02499 22.1184 25.3729 5.9072 46.675 5.9072H253.701C275.019 5.9072 292.351 22.1184 292.351 42.0247V536.495C292.351 556.417 275.003 572.613 253.701 572.613ZM46.675 6.2797C25.5801 6.2797 8.42361 22.3121 8.42361 42.0247V536.495C8.42361 556.208 25.5801 572.24 46.675 572.24H253.701C274.796 572.24 291.953 556.208 291.953 536.495V42.0247C291.953 22.3121 274.796 6.2797 253.701 6.2797H46.675Z" fill="black"/>
<path d="M299.507 129.328H298.566V195.466H299.507V129.328Z" fill="url(#paint0_linear_272_2)"/>
<path d="M299.523 195.466V129.344L300.002 129.918C299.763 134.653 299.779 190.173 300.002 194.892L299.523 195.466Z" fill="url(#paint1_linear_272_2)"/>
<path d="M1.41925 129.328H0.478516V173.782H1.41925V129.328Z" fill="url(#paint2_linear_272_2)"/>
<path d="M0.478342 173.782V129.344L0 129.918C0.239171 134.653 0.223226 168.488 0 173.208L0.478342 173.782Z" fill="url(#paint3_linear_272_2)"/>
<path d="M2.44038 129.344H1.41992V173.798H2.44038V129.344Z" fill="url(#paint4_linear_272_2)"/>
<path d="M1.41925 185.07H0.478516V229.524H1.41925V185.07Z" fill="url(#paint5_linear_272_2)"/>
<path d="M0.478342 229.524V185.086L0 185.66C0.239171 190.396 0.223226 224.231 0 228.95L0.478342 229.524Z" fill="url(#paint6_linear_272_2)"/>
<path d="M2.44038 185.07H1.41992V229.524H2.44038V185.07Z" fill="url(#paint7_linear_272_2)"/>
<path d="M1.41925 76.6941H0.478516V100.818H1.41925V76.6941Z" fill="url(#paint8_linear_272_2)"/>
<path d="M0.478342 100.819V76.7101L0 77.2841C0.239171 82.0197 0.223226 95.5249 0 100.244L0.478342 100.819Z" fill="url(#paint9_linear_272_2)"/>
<path d="M2.44038 76.7101H1.41992V100.834H2.44038V76.7101Z" fill="url(#paint10_linear_272_2)"/>
</g>
<defs>
<linearGradient id="paint0_linear_272_2" x1="299.061" y1="129.328" x2="299.061" y2="195.466" gradientUnits="userSpaceOnUse">
<stop stop-color="#3B3B3B"/>
<stop offset="0.02" stop-color="#E6E6E6"/>
<stop offset="0.04" stop-color="#333333"/>
<stop offset="0.08"/>
<stop offset="0.11" stop-color="#666666"/>
<stop offset="0.9" stop-color="#313131"/>
<stop offset="0.94"/>
<stop offset="0.96" stop-color="#333333"/>
<stop offset="0.98" stop-color="#CCCCCC"/>
<stop offset="1" stop-color="#2C2C2C"/>
</linearGradient>
<linearGradient id="paint1_linear_272_2" x1="299.763" y1="129.344" x2="299.763" y2="195.482" gradientUnits="userSpaceOnUse">
<stop stop-color="#A0A0A0"/>
<stop offset="0.06" stop-color="#333333"/>
<stop offset="0.19" stop-color="#8A8A8A"/>
<stop offset="0.81" stop-color="#8A8A8A"/>
<stop offset="0.92" stop-color="#333333"/>
<stop offset="1" stop-color="#A0A0A0"/>
</linearGradient>
<linearGradient id="paint2_linear_272_2" x1="0.940895" y1="907.414" x2="0.940895" y2="173.782" gradientUnits="userSpaceOnUse">
<stop stop-color="#3B3B3B"/>
<stop offset="0.02" stop-color="#E6E6E6"/>
<stop offset="0.04" stop-color="#333333"/>
<stop offset="0.08"/>
<stop offset="0.11" stop-color="#666666"/>
<stop offset="0.9" stop-color="#313131"/>
<stop offset="0.94"/>
<stop offset="0.96" stop-color="#333333"/>
<stop offset="0.98" stop-color="#CCCCCC"/>
<stop offset="1" stop-color="#2C2C2C"/>
</linearGradient>
<linearGradient id="paint3_linear_272_2" x1="0.223226" y1="907.414" x2="0.223226" y2="173.798" gradientUnits="userSpaceOnUse">
<stop stop-color="#A0A0A0"/>
<stop offset="0.06" stop-color="#333333"/>
<stop offset="0.19" stop-color="#8A8A8A"/>
<stop offset="0.81" stop-color="#8A8A8A"/>
<stop offset="0.92" stop-color="#333333"/>
<stop offset="1" stop-color="#A0A0A0"/>
</linearGradient>
<linearGradient id="paint4_linear_272_2" x1="1.93015" y1="173.798" x2="1.93015" y2="129.344" gradientUnits="userSpaceOnUse">
<stop stop-color="#353540"/>
<stop offset="0.05"/>
<stop offset="0.52" stop-color="#333333"/>
<stop offset="0.96"/>
<stop offset="1" stop-color="#262C31"/>
</linearGradient>
<linearGradient id="paint5_linear_272_2" x1="0.940913" y1="185.07" x2="0.940913" y2="229.524" gradientUnits="userSpaceOnUse">
<stop stop-color="#3B3B3B"/>
<stop offset="0.02" stop-color="#E6E6E6"/>
<stop offset="0.04" stop-color="#333333"/>
<stop offset="0.08"/>
<stop offset="0.11" stop-color="#666666"/>
<stop offset="0.9" stop-color="#313131"/>
<stop offset="0.94"/>
<stop offset="0.96" stop-color="#333333"/>
<stop offset="0.98" stop-color="#CCCCCC"/>
<stop offset="1" stop-color="#2C2C2C"/>
</linearGradient>
<linearGradient id="paint6_linear_272_2" x1="0.223227" y1="185.086" x2="0.223227" y2="229.524" gradientUnits="userSpaceOnUse">
<stop stop-color="#A0A0A0"/>
<stop offset="0.06" stop-color="#333333"/>
<stop offset="0.19" stop-color="#8A8A8A"/>
<stop offset="0.81" stop-color="#8A8A8A"/>
<stop offset="0.92" stop-color="#333333"/>
<stop offset="1" stop-color="#A0A0A0"/>
</linearGradient>
<linearGradient id="paint7_linear_272_2" x1="0.000841386" y1="229.54" x2="1.59531" y2="185.07" gradientUnits="userSpaceOnUse">
<stop stop-color="#353540"/>
<stop offset="0.05"/>
<stop offset="0.52" stop-color="#333333"/>
<stop offset="0.96"/>
<stop offset="1" stop-color="#262C31"/>
</linearGradient>
<linearGradient id="paint8_linear_272_2" x1="0.940913" y1="76.71" x2="0.940913" y2="100.834" gradientUnits="userSpaceOnUse">
<stop stop-color="#3B3B3B"/>
<stop offset="0.02" stop-color="#E6E6E6"/>
<stop offset="0.04" stop-color="#333333"/>
<stop offset="0.08"/>
<stop offset="0.11" stop-color="#666666"/>
<stop offset="0.9" stop-color="#313131"/>
<stop offset="0.94"/>
<stop offset="0.96" stop-color="#333333"/>
<stop offset="0.98" stop-color="#CCCCCC"/>
<stop offset="1" stop-color="#2C2C2C"/>
</linearGradient>
<linearGradient id="paint9_linear_272_2" x1="0.223226" y1="76.7101" x2="0.223226" y2="100.834" gradientUnits="userSpaceOnUse">
<stop stop-color="#A0A0A0"/>
<stop offset="0.06" stop-color="#333333"/>
<stop offset="0.19" stop-color="#8A8A8A"/>
<stop offset="0.81" stop-color="#8A8A8A"/>
<stop offset="0.92" stop-color="#333333"/>
<stop offset="1" stop-color="#A0A0A0"/>
</linearGradient>
<linearGradient id="paint10_linear_272_2" x1="0.000841109" y1="100.834" x2="1.93015" y2="76.7101" gradientUnits="userSpaceOnUse">
<stop stop-color="#353540"/>
<stop offset="0.05"/>
<stop offset="0.52" stop-color="#333333"/>
<stop offset="0.96"/>
<stop offset="1" stop-color="#262C31"/>
</linearGradient>
<clipPath id="clip0_272_2">
<rect width="300" height="240" fill="white"/>
</clipPath>
</defs>
</svg>