<svg width="199" height="35" viewBox="0 0 199 35" fill="none" xmlns="http://www.w3.org/2000/svg">
<g clip-path="url(#clip0_137_2022)">
<path d="M34.4152 0.556763H0.195312V34.7767H34.4152V0.556763Z" fill="#5C06F6"/>
<path d="M31.8025 26.753V26.7639C31.8025 29.1633 29.6247 30.6878 26.4358 30.6878C22.9809 30.6878 21.1252 29.1626 20.8693 26.9024L20.8584 26.8067H24.5264L24.5482 26.8922C24.7294 27.6809 25.3259 28.1367 26.4358 28.1367C27.4384 28.1367 28.0458 27.7742 28.0458 27.1769V27.166C28.0458 26.6433 27.6725 26.3556 26.6381 26.1425L24.5909 25.7372C22.585 25.3483 21.4293 24.3816 21.1858 22.9372L19.2212 30.9172H15.3976L15.4116 30.8605H14.1329L12.8208 25.5311L11.5087 30.8605H6.26961L3.24483 18.5786H7.06916L8.88994 25.9729L10.7107 18.5786H14.9348L16.6864 25.6913L18.4239 18.6353H22.2483L21.8594 20.2205C22.704 19.1767 24.2549 18.5786 26.3013 18.5786C29.6605 18.5786 31.4416 20.2951 31.4735 22.3749L31.4844 22.4605H28.0295L28.0186 22.3749C27.947 21.9867 27.7288 21.641 27.4093 21.4093C27.0897 21.1776 26.6932 21.0778 26.3021 21.1305C25.3742 21.1305 24.7768 21.5139 24.7768 22.1221V22.133C24.7768 22.6339 25.1284 22.9326 26.2274 23.1566L28.2745 23.5618C30.7362 24.0549 31.8025 25.0147 31.8025 26.753ZM7.16483 17.4275H3.04883V5.42947C3.92453 5.24017 4.83559 5.2978 5.68046 5.59595C6.52532 5.8941 7.27078 6.42103 7.83372 7.11801L11.1408 11.3048V5.32367H15.1518V9.95457C15.4993 8.50861 16.3659 7.24065 17.5868 6.39158C18.8077 5.5425 20.298 5.17144 21.7745 5.34891C23.251 5.52637 24.6109 6.23999 25.5958 7.35419C26.5808 8.46838 27.1222 9.90555 27.1172 11.3927C27.1166 11.7526 27.0843 12.1118 27.0207 12.466H18.3236C18.5021 12.9204 18.7915 13.3228 19.1654 13.6367C19.5393 13.9505 19.9858 14.1658 20.4642 14.2628C20.9426 14.3598 21.4377 14.3356 21.9043 14.1922C22.371 14.0489 22.7943 13.791 23.1357 13.4421L26.0337 14.853C25.3677 15.8141 24.438 16.5622 23.3568 17.0073C22.2755 17.4524 21.0886 17.5755 19.939 17.3618C18.7894 17.1482 17.726 16.6069 16.8768 15.803C16.0277 14.9991 15.4289 13.967 15.1526 12.8308V17.5675C14.3495 17.6724 13.5329 17.587 12.7689 17.3181C12.0048 17.0492 11.3147 16.6045 10.7543 16.0197L7.16561 11.7279L7.16483 17.4275ZM18.4512 10.0386H23.642C23.3946 9.564 23.0217 9.16633 22.5641 8.88883C22.1064 8.61133 21.5814 8.46462 21.0462 8.46462C20.511 8.46462 19.986 8.61133 19.5284 8.88883C19.0707 9.16633 18.6986 9.564 18.4512 10.0386Z" fill="white"/>
<path d="M44.8887 11.0606V8.68452H59.0442V11.0606H53.3377V26.9747H50.5874V11.0606H44.8887ZM58.632 26.9747V13.2571H61.2127V15.4348H61.3558C61.5872 14.7206 62.0531 14.1056 62.678 13.6895C63.3157 13.2626 64.0682 13.0396 64.8356 13.0502C65.0025 13.0502 65.2003 13.0561 65.429 13.0681C65.6584 13.0805 65.8381 13.0945 65.9696 13.1132V15.6674C65.7811 15.6225 65.5902 15.5882 65.3979 15.5647C65.1258 15.5259 64.8514 15.5064 64.5766 15.5064C63.9909 15.4952 63.4118 15.6317 62.8927 15.9031C62.4124 16.158 62.0094 16.5373 61.726 17.0013C61.4366 17.4821 61.2881 18.0346 61.2974 18.5957V26.9724L58.632 26.9747ZM70.2761 27.2788C69.4639 27.2909 68.6589 27.1247 67.9179 26.792C67.2395 26.4881 66.6618 25.997 66.2527 25.3764C65.8272 24.6949 65.6144 23.902 65.6413 23.0991C65.6147 22.4335 65.7687 21.7732 66.087 21.1881C66.3788 20.6938 66.7946 20.2844 67.2933 20.0004C67.8237 19.6988 68.3951 19.4761 68.9897 19.3393C69.6196 19.1895 70.2577 19.076 70.9007 18.9994C71.722 18.9045 72.3888 18.8267 72.9011 18.7661C73.2904 18.7389 73.67 18.633 74.0172 18.4549C74.1338 18.3813 74.2279 18.2771 74.2893 18.1537C74.3508 18.0302 74.3772 17.8923 74.3657 17.755V17.6927C74.3863 17.3617 74.3387 17.0299 74.2258 16.7181C74.1129 16.4062 73.937 16.1208 73.7092 15.8797C73.4423 15.6496 73.1326 15.4743 72.7979 15.364C72.4632 15.2536 72.11 15.2103 71.7586 15.2365C71.0051 15.1935 70.2587 15.4023 69.6368 15.8299C69.1699 16.1661 68.8015 16.621 68.5697 17.1475L66.0598 16.5751C66.3184 15.8015 66.7684 15.1058 67.368 14.5528C67.9412 14.0384 68.6192 13.6544 69.3552 13.4274C70.1213 13.1899 70.9192 13.0711 71.7212 13.0751C72.3083 13.0792 72.8934 13.1436 73.4673 13.2672C74.0823 13.3945 74.6693 13.6316 75.2002 13.9672C75.7582 14.3292 76.2136 14.8287 76.5224 15.4177C76.8969 16.1759 77.075 17.0159 77.0404 17.8607V26.9701H74.4326V25.0949H74.3252C74.1253 25.4757 73.8623 25.8199 73.5475 26.113C73.1612 26.4724 72.7094 26.7541 72.2167 26.9429C71.5974 27.1784 70.9385 27.2925 70.2761 27.2788ZM70.8563 25.1353C71.5157 25.1537 72.1688 25.003 72.7533 24.6974C73.2529 24.4323 73.6701 24.0352 73.9597 23.5494C74.2332 23.0889 74.3767 22.5629 74.375 22.0273V20.2586C74.2142 20.3869 74.0265 20.477 73.8259 20.5223C73.5222 20.6098 73.2133 20.6783 72.9011 20.7276C72.5553 20.7841 72.2182 20.836 71.89 20.8832L71.0687 20.9944C70.586 21.0518 70.1113 21.1627 69.6531 21.325C69.2626 21.4565 68.9121 21.6857 68.635 21.9907C68.3701 22.3126 68.2348 22.7216 68.2554 23.1379C68.2387 23.4291 68.2973 23.7197 68.4255 23.9817C68.5536 24.2436 68.7472 24.4682 68.9873 24.6336C69.5442 24.9885 70.1966 25.1636 70.8563 25.1353ZM83.8452 27.2431C82.7951 27.2591 81.764 26.9612 80.8842 26.3875C79.9883 25.784 79.2821 24.9384 78.848 23.9492C78.3273 22.7478 78.0756 21.447 78.1107 20.1381C78.0752 18.8302 78.3299 17.5308 78.8566 16.3332C79.2951 15.3475 80.0061 14.5077 80.906 13.9127C81.7878 13.3497 82.8155 13.0579 83.8616 13.0735C84.5723 13.0429 85.2795 13.1885 85.9203 13.4974C86.3895 13.7383 86.8031 14.0748 87.1344 14.4852C87.3824 14.7994 87.6077 15.1308 87.8088 15.4769H87.9698V8.67984H90.6399V26.9701H88.032V24.8366H87.8088C87.6065 25.1888 87.3749 25.5234 87.1166 25.8368C86.7752 26.2447 86.3544 26.5789 85.8799 26.8192C85.2476 27.1237 84.5505 27.2692 83.8491 27.2431H83.8452ZM84.4348 24.9657C85.1355 24.9874 85.8231 24.772 86.3862 24.3544C86.9434 23.9131 87.3643 23.3231 87.6003 22.6526C87.892 21.8398 88.0328 20.9805 88.0157 20.1171C88.033 19.2652 87.8938 18.4174 87.605 17.6157C87.3706 16.9558 86.9523 16.3766 86.3995 15.9466C85.8108 15.5517 85.117 15.343 84.4082 15.3477C83.6993 15.3524 83.0083 15.5703 82.425 15.9731C81.8695 16.4167 81.4501 17.0078 81.2148 17.6787C80.9335 18.4604 80.796 19.2865 80.8088 20.1171C80.7962 20.9597 80.9353 21.7978 81.2194 22.5912C81.4569 23.2721 81.8792 23.8735 82.439 24.328C83.0118 24.7653 83.7184 24.9906 84.4387 24.9657H84.4348ZM93.9081 11.1407C93.4646 11.1492 93.0358 10.9813 92.7158 10.6741C92.5596 10.5312 92.4348 10.3573 92.3494 10.1635C92.264 9.96976 92.22 9.76036 92.22 9.54862C92.22 9.33689 92.264 9.12749 92.3494 8.93372C92.4348 8.73996 92.5596 8.56609 92.7158 8.42319C93.0398 8.12207 93.4658 7.95471 93.9081 7.95471C94.3505 7.95471 94.7764 8.12207 95.1004 8.42319C95.2567 8.56609 95.3815 8.73996 95.4668 8.93372C95.5522 9.12749 95.5963 9.33689 95.5963 9.54862C95.5963 9.76036 95.5522 9.96976 95.4668 10.1635C95.3815 10.3573 95.2567 10.5312 95.1004 10.6741C94.7814 10.9803 94.3542 11.1481 93.912 11.1407H93.9081ZM92.5602 26.9747V13.2571H95.2303V26.9747H92.5602ZM99.6053 18.8299V26.9747H96.9345V13.2571H99.5011V15.4893H99.6714C99.9808 14.7702 100.499 14.1606 101.159 13.7393C101.928 13.2731 102.818 13.0433 103.717 13.0782C104.573 13.0588 105.419 13.2603 106.174 13.6631C106.883 14.0608 107.454 14.6671 107.807 15.3999C108.22 16.2912 108.419 17.2669 108.387 18.2489V26.974H105.717V18.574C105.766 17.7253 105.488 16.89 104.939 16.2406C104.665 15.955 104.332 15.7318 103.964 15.5861C103.596 15.4405 103.201 15.3759 102.805 15.3967C102.23 15.386 101.663 15.5245 101.158 15.7989C100.674 16.0717 100.279 16.4798 100.024 16.9733C99.7336 17.5481 99.5908 18.1861 99.6085 18.8299H99.6053ZM115.824 32.3811C114.87 32.4027 113.92 32.2577 113.016 31.9525C112.307 31.7111 111.655 31.3267 111.1 30.8232C110.633 30.3943 110.257 29.8765 109.993 29.3003L112.288 28.3537C112.479 28.643 112.696 28.915 112.935 29.1665C113.25 29.4883 113.627 29.7433 114.042 29.9163C114.617 30.1439 115.233 30.2498 115.851 30.2274C116.745 30.2628 117.626 30.0056 118.361 29.4947C118.703 29.2175 118.972 28.8606 119.144 28.4554C119.317 28.0501 119.387 27.6087 119.349 27.17V24.4726H119.179C118.98 24.8188 118.748 25.1449 118.487 25.4464C118.142 25.8371 117.721 26.1531 117.249 26.3751C116.607 26.6612 115.907 26.7956 115.204 26.7679C114.178 26.7829 113.167 26.5192 112.279 26.0048C111.388 25.4687 110.674 24.6832 110.225 23.7454C109.689 22.5933 109.43 21.3313 109.471 20.0611C109.436 18.771 109.691 17.4896 110.216 16.3106C110.658 15.333 111.368 14.5013 112.265 13.9127C113.148 13.3526 114.175 13.0625 115.221 13.0782C115.933 13.048 116.641 13.1936 117.283 13.5021C117.756 13.7437 118.174 14.0799 118.512 14.4898C118.764 14.8028 118.992 15.1343 119.194 15.4815H119.391V13.2571H122.008V27.2788C122.049 28.3014 121.761 29.3102 121.186 30.1566C120.625 30.9196 119.854 31.5018 118.967 31.8312C117.963 32.2087 116.897 32.3952 115.824 32.3811ZM115.798 24.5574C116.488 24.5796 117.169 24.3913 117.749 24.0176C118.302 23.6331 118.725 23.091 118.964 22.4621C119.259 21.6856 119.4 20.8594 119.38 20.0292C119.395 19.1979 119.256 18.3709 118.968 17.5908C118.731 16.9384 118.313 16.367 117.763 15.9435C117.173 15.5517 116.479 15.3449 115.771 15.3496C115.063 15.3543 114.373 15.5704 113.788 15.97C113.235 16.4071 112.816 16.9904 112.578 17.6538C112.298 18.4142 112.16 19.2197 112.171 20.03C112.155 20.8377 112.294 21.641 112.582 22.396C112.824 23.0336 113.248 23.5864 113.801 23.9857C114.39 24.3809 115.089 24.5798 115.798 24.5543V24.5574Z" fill="black"/>
<path d="M141.52 26.9755H137.769L130.49 16.4195H130.374V26.9755H125.953V8.68532H129.757L136.956 19.2234H137.106V8.68532H141.519L141.52 26.9755ZM143.786 8.68532H156.542V12.2755H148.206V16.026H155.887V19.6255H148.206V23.3853H156.538V26.9755H143.783L143.786 8.68532ZM157.864 8.68532H162.749L165.509 20.6709H165.664L168.816 8.68532H172.799L175.952 20.6973H176.107L178.875 8.68532H183.752L178.438 26.9755H174.178L170.883 15.8837H170.74L167.44 26.9755H163.189L157.864 8.68532ZM191.255 12.0873C189.543 12.0873 188.682 12.8107 188.674 13.8117C188.638 14.9005 189.693 15.4551 191.353 15.8121L192.925 16.1699C196.533 16.9647 198.507 18.7505 198.525 21.6711C198.507 25.1446 195.811 27.2081 191.255 27.2081C186.656 27.2081 183.682 25.1633 183.628 20.8848H187.862C187.96 22.6441 189.246 23.5556 191.202 23.5556C192.979 23.5556 194.024 22.7779 194.042 21.6625C194.024 20.6359 193.122 20.0906 191.113 19.6263L189.202 19.1799C186.04 18.4565 184.093 16.8932 184.102 14.1158C184.076 10.713 187.085 8.43799 191.265 8.43799C195.516 8.43799 198.241 10.7511 198.276 14.1717H194.043C193.929 12.8643 192.982 12.0873 191.258 12.0873H191.255Z" fill="#5C06F6"/>
</g>
<defs>
<clipPath id="clip0_137_2022">
<rect width="198.333" height="34.2199" fill="white" transform="translate(0.195312 0.556763)"/>
</clipPath>
</defs>
</svg>
