<svg width="356" height="60" viewBox="0 0 356 60" fill="none" xmlns="http://www.w3.org/2000/svg">
<path d="M61.4961 0H0.121094V60H61.4961V0Z" fill="white"/>
<path d="M79.5566 17.4631V13.2021H104.946V17.4631H94.7146V46.0071H89.7806V17.4631H79.5566ZM104.206 46.0071V21.407H108.835V25.3151H109.091C109.508 24.0329 110.346 22.9295 111.47 22.1841C112.613 21.4183 113.962 21.0186 115.338 21.0381C115.636 21.0381 115.991 21.0487 116.403 21.0701C116.814 21.0921 117.138 21.1181 117.373 21.1511V25.7311C117.034 25.6513 116.692 25.5898 116.347 25.5471C115.859 25.4795 115.366 25.4461 114.874 25.4471C113.823 25.4274 112.785 25.6722 111.854 26.1591C110.976 26.6203 110.245 27.3161 109.74 28.1689C109.235 29.0218 108.977 29.9982 108.995 30.9891V46.0131L104.206 46.0071ZM125.09 46.5521C123.633 46.5734 122.19 46.2755 120.861 45.6791C119.644 45.1338 118.608 44.2531 117.874 43.1401C117.11 41.9178 116.727 40.4957 116.774 39.0551C116.727 37.8615 117.003 36.6774 117.574 35.6281C118.097 34.742 118.843 34.0078 119.737 33.498C120.688 32.957 121.714 32.5575 122.781 32.3121C123.91 32.0435 125.055 31.8401 126.208 31.7031C127.682 31.5331 128.878 31.3917 129.796 31.2791C130.493 31.2314 131.173 31.0433 131.796 30.7261C132.003 30.5943 132.171 30.4084 132.282 30.1884C132.392 29.9683 132.44 29.7224 132.421 29.4771V29.3641C132.457 28.7704 132.372 28.1755 132.169 27.6163C131.966 27.0571 131.651 26.5455 131.243 26.1131C130.764 25.7002 130.208 25.3859 129.607 25.188C129.007 24.9902 128.373 24.9127 127.743 24.9601C126.393 24.8842 125.056 25.2588 123.943 26.0251C123.105 26.6273 122.444 27.4429 122.029 28.3871L117.529 27.3621C117.993 25.9745 118.801 24.7268 119.877 23.735C120.905 22.8122 122.121 22.1234 123.441 21.7161C124.815 21.2898 126.246 21.0763 127.685 21.0831C128.738 21.0908 129.787 21.2063 130.817 21.428C131.919 21.6573 132.972 22.0831 133.924 22.6851C134.926 23.3333 135.745 24.2287 136.302 25.2851C136.974 26.6445 137.293 28.151 137.231 29.6661V46.0041H132.557V42.6401H132.364C132.006 43.3233 131.535 43.9408 130.971 44.4661C130.277 45.1107 129.467 45.6165 128.584 45.9561C127.469 46.3773 126.284 46.5797 125.094 46.5521H125.09ZM126.131 42.7081C127.312 42.7406 128.483 42.4704 129.531 41.9231C130.426 41.4468 131.174 40.7348 131.694 39.8641C132.184 39.0379 132.441 38.0946 132.438 37.1341V33.9621C132.149 34.1923 131.813 34.3537 131.453 34.4341C130.908 34.5916 130.354 34.7148 129.795 34.803C129.175 34.9044 128.572 34.9951 127.985 35.0751L126.512 35.2751C125.646 35.3777 124.794 35.5765 123.973 35.868C123.272 36.1042 122.644 36.5152 122.147 37.0621C121.672 37.6395 121.429 38.3732 121.466 39.1201C121.436 39.6425 121.541 40.1637 121.771 40.6337C122.001 41.1036 122.349 41.5063 122.78 41.803C123.778 42.4422 124.95 42.7583 126.135 42.7081H126.131ZM149.431 46.4881C147.548 46.518 145.699 45.9852 144.121 44.9581C142.514 43.8754 141.248 42.359 140.469 40.5851C139.536 38.4313 139.085 36.0995 139.148 33.7531C139.084 31.4079 139.541 29.0778 140.485 26.9301C141.272 25.1625 142.547 23.6564 144.161 22.5891C145.742 21.5794 147.585 21.0558 149.461 21.0831C150.735 21.0285 152.004 21.2899 153.153 21.8441C153.994 22.2756 154.737 22.8785 155.332 23.6141C155.776 24.1777 156.18 24.7719 156.541 25.3921H156.829V13.2021H161.618V46.0021H156.942V42.1741H156.542C156.179 42.8058 155.764 43.4059 155.301 43.9681C154.688 44.6997 153.933 45.2991 153.082 45.73C151.947 46.2758 150.696 46.5361 149.438 46.4881H149.431ZM150.488 42.4031C151.745 42.441 152.978 42.0534 153.988 41.303C154.987 40.5114 155.743 39.4535 156.167 38.2511C156.689 36.7927 156.942 35.2511 156.912 33.7021C156.942 32.1745 156.692 30.6543 156.174 29.217C155.753 28.0331 155.003 26.994 154.012 26.222C152.956 25.5145 151.711 25.1407 150.44 25.1492C149.169 25.1578 147.93 25.5483 146.884 26.2701C145.888 27.0664 145.136 28.1268 144.714 29.3301C144.209 30.7315 143.962 32.2127 143.985 33.7021C143.962 35.2136 144.212 36.7169 144.722 38.1401C145.148 39.3609 145.904 40.4393 146.908 41.2551C147.935 42.0404 149.202 42.446 150.495 42.4031H150.488ZM167.48 17.6081C167.085 17.6153 166.693 17.5446 166.326 17.4001C165.959 17.2556 165.624 17.0401 165.341 16.7661C165.061 16.5096 164.837 16.1979 164.684 15.8505C164.532 15.5031 164.453 15.1276 164.453 14.748C164.453 14.3685 164.532 13.9931 164.684 13.6457C164.837 13.2983 165.061 12.9865 165.341 12.73C165.922 12.1896 166.686 11.8892 167.48 11.8892C168.273 11.8892 169.037 12.1896 169.619 12.73C169.898 12.9865 170.122 13.2983 170.275 13.6457C170.428 13.9931 170.507 14.3685 170.507 14.748C170.507 15.1276 170.428 15.5031 170.275 15.8505C170.122 16.1979 169.898 16.5096 169.619 16.7661C169.047 17.3179 168.281 17.6207 167.487 17.6081H167.48ZM165.061 46.0081V21.4081H169.851V46.0081H165.061ZM177.696 31.4001V46.0081H172.907V21.4081H177.507V25.4081H177.807C178.361 24.1184 179.291 23.0249 180.474 22.269C181.854 21.4331 183.45 21.0208 185.063 21.0831C186.595 21.0493 188.111 21.4109 189.463 22.1331C190.736 22.8461 191.759 23.9336 192.394 25.248C193.135 26.8467 193.492 28.5968 193.436 30.3581V46.0071H188.657V30.9351C188.747 29.4118 188.248 27.9121 187.264 26.7461C186.772 26.2336 186.175 25.8331 185.514 25.5719C184.853 25.3106 184.144 25.1947 183.435 25.2321C182.404 25.212 181.385 25.4605 180.48 25.9531C179.611 26.4422 178.904 27.1741 178.446 28.0591C177.924 29.0933 177.669 30.2412 177.703 31.399L177.696 31.4001ZM206.781 55.7001C205.069 55.7383 203.365 55.4781 201.743 54.9311C200.471 54.4974 199.302 53.8079 198.307 52.9051C197.47 52.1351 196.795 51.2069 196.321 50.1741L200.438 48.4741C200.782 48.9928 201.17 49.4807 201.599 49.9321C202.164 50.5092 202.839 50.9666 203.585 51.277C204.616 51.6864 205.72 51.8775 206.829 51.8381C208.432 51.9013 210.012 51.4399 211.329 50.524C211.943 50.0278 212.426 49.3887 212.736 48.6627C213.045 47.9366 213.173 47.1457 213.107 46.3591V41.5201H212.802C212.445 42.1406 212.029 42.7253 211.561 43.2661C210.942 43.967 210.187 44.534 209.342 44.9321C208.189 45.4438 206.934 45.6834 205.674 45.6321C203.833 45.6591 202.021 45.1855 200.429 44.2621C198.837 43.3018 197.56 41.8968 196.757 40.2201C195.795 38.1536 195.332 35.8902 195.404 33.6121C195.342 31.2979 195.799 28.9994 196.742 26.8851C197.534 25.1317 198.809 23.6402 200.418 22.5851C202 21.5792 203.843 21.0579 205.718 21.0851C206.995 21.0312 208.265 21.2926 209.418 21.8461C210.265 22.2788 211.014 22.8813 211.618 23.6161C212.07 24.1773 212.479 24.7716 212.843 25.394H213.196V21.4061H217.889V46.5541C217.964 48.3895 217.448 50.2006 216.416 51.7201C215.41 53.087 214.026 54.1298 212.435 54.7201C210.63 55.3954 208.714 55.7271 206.788 55.6981L206.781 55.7001ZM206.732 41.6681C207.969 41.7078 209.19 41.3702 210.232 40.7001C211.221 40.0108 211.98 39.0392 212.41 37.912C212.938 36.5194 213.191 35.0373 213.155 33.5481C213.183 32.057 212.933 30.5736 212.418 29.1741C211.992 28.0037 211.242 26.9787 210.256 26.2191C209.198 25.5164 207.954 25.1456 206.684 25.1541C205.414 25.1627 204.176 25.5502 203.128 26.2671C202.136 27.051 201.384 28.0972 200.957 29.287C200.454 30.6506 200.207 32.0951 200.228 33.5481C200.199 34.997 200.449 36.4378 200.965 37.7921C201.399 38.9359 202.159 39.9272 203.152 40.6431C204.209 41.3541 205.465 41.7122 206.739 41.6661L206.732 41.6681ZM252.869 46.0091H246.141L233.087 27.076H232.879V46.0091H224.957V13.209H231.78L244.69 32.1091H244.963V13.209H252.876L252.869 46.0091ZM256.932 13.209H279.806V19.649H264.868V26.3761H278.644V32.8201H264.868V39.5641H279.813V46.0031H256.939L256.932 13.209ZM282.187 13.209H290.957L295.907 34.709H296.179L301.833 13.209H308.977L314.632 34.7541H314.904L319.869 13.209H328.616L319.085 46.0091H311.444L305.533 26.1151H305.277L299.366 46.0091H291.742L282.187 13.209ZM342.076 19.3091C339 19.3091 337.463 20.6091 337.447 22.4011C337.383 24.3551 339.273 25.3481 342.247 25.9891L345.066 26.6301C351.537 28.0551 355.077 31.2591 355.11 36.4961C355.077 42.7271 350.24 46.428 342.071 46.428C333.821 46.428 328.488 42.7601 328.392 35.0871H335.984C336.16 38.2431 338.467 39.8771 341.975 39.8771C345.162 39.8771 347.037 38.4831 347.068 36.4771C347.037 34.6341 345.419 33.6571 341.815 32.8241L338.387 32.024C332.716 30.724 329.224 27.9241 329.241 22.9421C329.193 16.8421 334.591 12.7551 342.087 12.7551C349.711 12.7551 354.597 16.9041 354.661 23.0381H347.068C346.873 20.6991 345.174 19.3051 342.083 19.3051L342.076 19.3091Z" fill="white"/>
<path d="M56.8073 45.832V45.85C56.8073 50.024 52.9073 52.6769 47.1873 52.6769C40.9873 52.6769 37.6633 50.0239 37.2043 46.0899L37.1853 45.923H43.7643L43.8023 46.0709C44.1273 47.4449 45.2023 48.2419 47.1873 48.2419C48.9873 48.2419 50.0753 47.6109 50.0753 46.5729V46.5549C50.0753 45.6449 49.4063 45.1449 47.5513 44.7739L43.8793 44.069C40.2793 43.3969 38.2073 41.7109 37.7713 39.2039L34.2473 53.087H27.3883L27.4143 52.9869H25.1203L22.7673 43.7149L20.4133 52.9869H11.0133L5.58933 31.6189H12.4473L15.7133 44.4839L18.9793 31.6189H26.5553L29.6963 43.9939L32.8133 31.7179H39.6743L38.9743 34.475C40.4903 32.659 43.2743 31.6189 46.9423 31.6189C52.9663 31.6189 56.1603 34.6059 56.2183 38.2189L56.2373 38.3669H50.0373L50.0183 38.2189C49.8653 37.0319 48.8133 36.0489 46.9393 36.0489C45.2753 36.0489 44.2043 36.7159 44.2043 37.7739V37.7919C44.2043 38.6639 44.8353 39.184 46.8043 39.574L50.4763 40.2739C54.8953 41.1379 56.8073 42.8069 56.8073 45.832ZM12.6193 29.6069H5.23633V8.73295C6.7988 8.4028 8.42148 8.50154 9.93237 9.01878C11.4432 9.53602 12.786 10.4525 13.8183 11.6709L19.7503 18.9549V8.54893H26.9433V16.6059C27.6303 14.0829 29.1994 11.89 31.3656 10.4254C33.5318 8.96083 36.1515 8.3218 38.7488 8.62437C41.3461 8.92694 43.7487 10.1511 45.5202 12.0744C47.2918 13.9977 48.3148 16.4926 48.4033 19.1059C48.4028 19.7322 48.3448 20.3572 48.2303 20.9729H32.6303C33.0322 21.935 33.7114 22.7557 34.5814 23.3304C35.4513 23.9051 36.4727 24.2078 37.5153 24.1999C38.9165 24.2042 40.2626 23.6547 41.2603 22.6709L46.4603 25.1239C45.4381 26.5371 44.0937 27.6861 42.5385 28.4757C40.9834 29.2653 39.2624 29.6726 37.5183 29.6639C35.1107 29.6882 32.7637 28.9091 30.8484 27.4499C28.9332 25.9907 27.5591 23.9346 26.9433 21.6069V29.8489C26.9433 29.8489 22.0843 30.5829 19.0563 27.1559L12.6193 19.6949V29.6069ZM32.8633 16.7519H42.1733C41.7117 15.9223 41.0368 15.2311 40.2183 14.7499C39.3999 14.2686 38.4678 14.0149 37.5183 14.0149C36.5689 14.0149 35.6367 14.2686 34.8183 14.7499C33.9999 15.2311 33.3249 15.9223 32.8633 16.7519Z" fill="#4C20EF"/>
</svg>
