<svg width="844" height="80" viewBox="0 0 844 80" fill="none" xmlns="http://www.w3.org/2000/svg">
<path fill-rule="evenodd" clip-rule="evenodd" d="M182.462 47.8656H188.001L196.307 27.4734H190.923L185.387 41.2784L183.231 29.5123C183.078 28.4168 182.154 27.4734 180.923 27.4734H172V28.1014C173.847 28.4168 175.54 29.042 177.077 29.8277C177.693 30.1403 178.111 30.8037 178.308 31.554L182.462 47.8656ZM194.154 47.8656H199.385L203.692 27.4734H198.462L194.154 47.8656ZM212.617 31.3932C211.54 31.3932 210.616 32.0212 210.462 33.1195C210.462 34.0579 211.614 34.6716 212.998 35.4092C215.082 36.5202 217.694 37.9122 217.694 41.1176C217.694 45.3532 214.157 48.1751 208.464 48.0201C206.617 48.0201 204.618 47.7048 202.771 46.9218L203.695 42.5286C205.385 43.3143 207.232 43.7846 209.08 43.7846C210.616 43.7846 212.156 43.1566 212.156 41.7456C212.309 40.805 211.54 40.177 209.541 39.2364C207.694 38.293 205.077 36.7271 205.077 33.7448C205.077 29.8246 208.772 27 213.849 27C215.385 27 217.079 27.3154 218.618 27.9434L217.694 32.3339C216.155 31.5509 214.311 31.2356 212.617 31.3932ZM231.845 27.4734L235.998 47.8656H231.229L230.613 44.886H223.997L222.922 47.8656H217.537L225.228 29.042C225.536 28.1014 226.46 27.4734 227.383 27.4734H231.845ZM229.69 40.6482L228.154 32.9628L225.383 40.6482H229.69ZM225.692 52H226.599V55.1667H226.62C226.943 54.6046 227.526 54.2501 228.338 54.2501C229.599 54.2501 230.474 55.2914 230.474 56.812C230.474 58.6131 229.328 59.5092 228.203 59.5092C227.474 59.5092 226.89 59.2278 226.505 58.5713H226.484L226.432 59.3943H225.651C225.671 59.0505 225.692 58.5401 225.692 58.092V52ZM226.599 57.3741C226.599 57.4881 226.609 57.603 226.64 57.7063C226.808 58.3414 227.349 58.7797 228.016 58.7797C228.985 58.7797 229.547 57.9985 229.547 56.8423C229.547 55.8321 229.026 54.9672 228.037 54.9672C227.422 54.9672 226.839 55.4054 226.651 56.0922C226.62 56.2071 226.599 56.3318 226.599 56.4779V57.3741ZM214.928 52.3342C214.209 52.3342 213.553 52.3966 213 52.4901V59.3847C213.458 59.4364 213.989 59.4675 214.647 59.4675C216.012 59.4675 217.095 59.113 217.762 58.4574C218.407 57.8116 218.772 56.8745 218.772 55.729C218.772 54.5932 218.407 53.7808 217.772 53.209C217.158 52.6469 216.229 52.3342 214.928 52.3342ZM214.823 58.7389C214.469 58.7389 214.136 58.7282 213.907 58.697V53.1457C214.147 53.094 214.501 53.0522 214.969 53.0522C216.887 53.0522 217.824 54.1042 217.814 55.7601C217.814 57.6557 216.772 58.7389 214.823 58.7389ZM222.444 58.791C221.516 58.791 220.735 58.2814 220.714 57.0415V57.0406H224.256C224.277 56.9364 224.287 56.801 224.287 56.613C224.287 55.6875 223.86 54.2498 222.203 54.2498C220.735 54.2498 219.839 55.4372 219.839 56.9569C219.839 58.4783 220.766 59.5098 222.318 59.5098C223.12 59.5098 223.682 59.3326 224.006 59.1865L223.839 58.5309C223.506 58.6761 223.1 58.791 222.444 58.791ZM222.13 54.9072C223.162 54.9072 223.412 55.8122 223.402 56.3859H223.401H220.723C220.796 55.7507 221.193 54.9072 222.13 54.9072ZM232.324 53.5017C232.688 53.5017 232.907 53.2522 232.907 52.9396C232.907 52.6171 232.679 52.3668 232.345 52.3668C232.002 52.3668 231.773 52.6278 231.773 52.9396C231.773 53.2514 231.99 53.5017 232.324 53.5017ZM231.886 54.3559V59.3968H232.803V54.3559H231.886ZM235.684 53.1584V54.3672H236.997V55.0647H235.684V57.7824C235.684 58.4068 235.861 58.7614 236.371 58.7614C236.622 58.7614 236.768 58.7409 236.902 58.699L236.944 59.3965C236.767 59.4597 236.485 59.5221 236.131 59.5221C235.704 59.5221 235.361 59.376 235.141 59.1364C234.891 58.8549 234.787 58.4068 234.787 57.8127V55.0638H234.006V54.3663H234.787V53.4283L235.683 53.1575L235.684 53.1584Z" fill="#172B85"/>
<path d="M99.4283 38.9708C98.9027 39.3372 98.1398 39.5183 97.096 39.5183H96.0609L96.8547 35.2313H97.6159C98.4823 35.2313 99.1151 35.3707 99.5512 35.6537C99.892 35.8757 100.296 36.3151 100.296 37.1489C100.296 38.1535 99.826 38.694 99.4283 38.9708ZM37.6776 44.3512H29.6667L30.1845 41.549H35.2092L35.7802 38.3928H30.8038L31.2848 35.6195H39.2817L37.6776 44.3512ZM103.744 33.2142C102.566 32.4068 100.784 32 98.4468 32H92.3267L90.0517 44.3516H82.0346L82.5487 41.5494H87.3787L87.953 38.4019L83.1259 38.4106L83.6428 35.6203H88.6168L89.2786 32.0004H79.1747L77.0153 43.7179H73.3103L75.4854 32.0004H70.2033L68.0438 43.7179H64.4314L66.6085 32.0004H61.3317L59.051 44.352H50.9769L51.4856 41.5498H56.3375L56.9089 38.4205L52.0645 38.4159L52.579 35.6203H57.6082L58.2667 32.0004H26.7886L24.9968 41.7887L21.4272 32H15.9487L13 47.9736H18.2318L20.0162 37.9163L23.4806 47.9736H42.2329L44.5123 35.6199H47.4465L45.1658 47.9736H94.5088L95.9379 40.1747L98.2545 47.9736H103.489L101.091 41.6014L101.638 41.483C102.845 41.2247 103.789 40.6682 104.444 39.8343C105.101 38.9927 105.434 37.9122 105.434 36.6142C105.435 35.1025 104.882 33.9911 103.744 33.2142Z" fill="#8DC640"/>
<path d="M108.058 46.0844L108.771 46.0473C108.922 46.0403 109.041 46.0176 109.124 45.9817C109.208 45.9466 109.271 45.893 109.311 45.8208C109.351 45.749 109.371 45.6735 109.366 45.5926C109.359 45.473 109.311 45.3777 109.222 45.3047C109.132 45.2325 108.993 45.2028 108.807 45.2114L108.014 45.2518L108.058 46.0844ZM107.794 47.5028L107.666 44.9903L108.78 44.9342C109.003 44.9226 109.174 44.9366 109.293 44.9762C109.413 45.015 109.509 45.0901 109.585 45.2011C109.66 45.3117 109.702 45.4346 109.708 45.5732C109.718 45.7515 109.667 45.9041 109.558 46.0328C109.449 46.1603 109.276 46.2474 109.037 46.2928C109.126 46.3316 109.196 46.3687 109.243 46.4071C109.345 46.4912 109.442 46.5985 109.535 46.728L110.004 47.3898L109.59 47.4108L109.231 46.905C109.126 46.7586 109.04 46.6472 108.974 46.5704C108.907 46.4937 108.847 46.4413 108.796 46.4116C108.746 46.3819 108.693 46.3625 108.642 46.3518C108.603 46.346 108.542 46.3452 108.456 46.3497L108.072 46.3691L108.127 47.4859L107.794 47.5028Z" fill="#8DC640"/>
<path d="M106.706 46.287C106.68 45.7672 106.857 45.2688 107.205 44.8834C107.554 44.4973 108.033 44.2691 108.554 44.2427C109.626 44.187 110.543 45.015 110.598 46.0881C110.6 46.1211 110.602 46.1562 110.602 46.188C110.602 47.2178 109.791 48.0805 108.752 48.1349C107.678 48.1894 106.762 47.3605 106.706 46.287ZM108.532 43.8421C107.907 43.8755 107.329 44.1486 106.909 44.6144C106.489 45.0798 106.275 45.6822 106.307 46.3089C106.375 47.601 107.48 48.5982 108.773 48.5335C110.064 48.4666 111.064 47.3605 110.997 46.0683V46.0671C110.932 44.7745 109.826 43.7765 108.532 43.8421Z" fill="#8DC640"/>
<path d="M483.721 60.2197V57.5452C483.736 57.3203 483.704 57.0946 483.626 56.8832C483.547 56.6718 483.425 56.4795 483.266 56.3192C483.107 56.1589 482.916 56.0343 482.706 55.9536C482.495 55.873 482.27 55.8381 482.045 55.8514C481.75 55.8323 481.456 55.8925 481.192 56.0257C480.929 56.159 480.706 56.3605 480.547 56.6092C480.402 56.3679 480.195 56.1702 479.947 56.0368C479.699 55.9034 479.42 55.8394 479.139 55.8514C478.893 55.8391 478.649 55.891 478.43 56.0021C478.212 56.1131 478.025 56.2793 477.891 56.4844V55.9584H476.963V60.2197H477.899V57.8573C477.879 57.7115 477.891 57.5631 477.935 57.4226C477.979 57.2821 478.054 57.1532 478.154 57.0449C478.253 56.9367 478.376 56.8519 478.512 56.7966C478.649 56.7413 478.796 56.7169 478.942 56.7252C479.558 56.7252 479.87 57.1263 479.87 57.8484V60.2197H480.806V57.8573C480.787 57.7118 480.8 57.5639 480.845 57.4242C480.889 57.2844 480.964 57.156 481.063 57.0481C481.163 56.9402 481.285 56.8554 481.42 56.7996C481.556 56.7438 481.702 56.7184 481.849 56.7252C482.482 56.7252 482.785 57.1263 482.785 57.8484V60.2197H483.721ZM488.945 55.9584H488.018V56.4755C487.859 56.2715 487.655 56.1085 487.42 55.9999C487.186 55.8913 486.929 55.8404 486.672 55.8514C486.097 55.8796 485.555 56.1277 485.159 56.5442C484.762 56.9608 484.541 57.5139 484.541 58.0891C484.541 58.6642 484.762 59.2174 485.159 59.6339C485.555 60.0505 486.097 60.2985 486.672 60.3267C486.929 60.3377 487.186 60.2868 487.42 60.1782C487.655 60.0697 487.859 59.9066 488.018 59.7026V60.2197H488.945V55.9584ZM485.495 58.089C485.509 57.8376 485.597 57.5958 485.747 57.3936C485.897 57.1914 486.103 57.0375 486.34 56.951C486.576 56.8645 486.833 56.8491 487.078 56.9067C487.323 56.9643 487.546 57.0924 487.72 57.2752C487.893 57.458 488.009 57.6875 488.053 57.9355C488.097 58.1834 488.068 58.4389 487.969 58.6704C487.87 58.902 487.705 59.0994 487.495 59.2385C487.285 59.3775 487.039 59.4521 486.787 59.453C486.611 59.4554 486.436 59.4211 486.273 59.3525C486.111 59.2838 485.964 59.1822 485.842 59.0541C485.721 58.926 485.627 58.774 485.568 58.6079C485.508 58.4418 485.483 58.2651 485.495 58.089ZM508.783 55.8464C509.096 55.8434 509.407 55.9016 509.698 56.0178C509.969 56.1259 510.216 56.2862 510.425 56.4894C510.631 56.6915 510.795 56.9328 510.906 57.1991C511.137 57.7698 511.137 58.4082 510.906 58.9789C510.795 59.2453 510.631 59.4867 510.425 59.6887C510.216 59.892 509.969 60.0522 509.698 60.1603C509.11 60.3889 508.457 60.3889 507.869 60.1603C507.598 60.0526 507.352 59.8923 507.144 59.6887C506.939 59.4861 506.776 59.2448 506.665 58.9789C506.434 58.4082 506.434 57.7699 506.665 57.1991C506.776 56.9333 506.939 56.6921 507.144 56.4894C507.352 56.2859 507.598 56.1256 507.869 56.0178C508.16 55.9016 508.47 55.8434 508.783 55.8464ZM508.783 56.7231C508.602 56.7214 508.422 56.7555 508.254 56.8232C508.095 56.8868 507.951 56.9822 507.831 57.1034C507.71 57.2273 507.615 57.3741 507.551 57.5351C507.414 57.8919 507.414 58.2864 507.551 58.6431C507.615 58.8041 507.71 58.9509 507.831 59.0747C507.951 59.196 508.095 59.2914 508.254 59.355C508.594 59.4885 508.972 59.4885 509.313 59.355C509.472 59.2911 509.616 59.1957 509.738 59.0747C509.86 58.9513 509.956 58.8045 510.02 58.6431C510.157 58.2864 510.157 57.8919 510.02 57.5351C509.956 57.3737 509.86 57.2269 509.738 57.1034C509.616 56.9825 509.472 56.8872 509.313 56.8232C509.145 56.7555 508.965 56.7214 508.783 56.7231ZM493.99 58.089C493.981 56.7607 493.161 55.8514 491.966 55.8514C491.388 55.8818 490.844 56.1349 490.448 56.5577C490.053 56.9805 489.836 57.5401 489.844 58.1191C489.852 58.6981 490.084 59.2514 490.492 59.663C490.899 60.0746 491.45 60.3125 492.029 60.3267C492.665 60.349 493.287 60.1364 493.776 59.7294L493.321 59.0429C492.969 59.325 492.533 59.4819 492.082 59.4886C491.776 59.5144 491.471 59.42 491.233 59.2253C490.995 59.0306 490.843 58.751 490.807 58.4456H493.972C493.981 58.3297 493.99 58.2139 493.99 58.089ZM490.816 57.7146C490.832 57.4286 490.96 57.1602 491.172 56.9669C491.383 56.7737 491.662 56.6709 491.948 56.6805C492.228 56.6751 492.499 56.7809 492.701 56.9747C492.904 57.1685 493.021 57.4346 493.027 57.7146H490.816ZM497.894 57.0461C497.49 56.8134 497.033 56.6876 496.566 56.6805C496.058 56.6805 495.755 56.8677 495.755 57.1798C495.755 57.4651 496.076 57.5452 496.477 57.5987L496.914 57.6611C497.841 57.7948 498.402 58.1871 498.402 58.9359C498.402 59.7472 497.689 60.3267 496.459 60.3267C495.801 60.3449 495.154 60.1511 494.614 59.7739L495.05 59.0519C495.46 59.3552 495.959 59.5122 496.468 59.4976C497.101 59.4976 497.44 59.3104 497.44 58.9805C497.44 58.7398 497.199 58.6061 496.691 58.5348L496.254 58.4725C495.3 58.3387 494.783 57.9108 494.783 57.2154C494.783 56.3685 495.478 55.8514 496.557 55.8514C497.167 55.8304 497.771 55.9851 498.295 56.2972L497.894 57.0461ZM502.349 56.8053H500.834V58.731C500.834 59.1588 500.985 59.4441 501.449 59.4441C501.738 59.4345 502.02 59.3517 502.269 59.2034L502.536 59.9969C502.189 60.2136 501.787 60.3279 501.377 60.3267C500.281 60.3267 499.898 59.7383 499.898 58.7487V56.8053H499.033V55.9584H499.898L499.897 54.6658H500.833L500.834 55.9584H502.349V56.8053ZM505.558 55.8514C505.783 55.8523 506.006 55.8916 506.218 55.9674L505.932 56.841C505.748 56.7676 505.551 56.7313 505.353 56.734C504.747 56.734 504.443 57.1263 504.443 57.8305V60.2197H503.516V55.9584H504.435V56.4755C504.548 56.28 504.713 56.1189 504.91 56.0091C505.108 55.8992 505.332 55.8448 505.558 55.8514ZM511.976 59.5994C512.034 59.599 512.091 59.6103 512.144 59.6327C512.195 59.654 512.242 59.6849 512.282 59.7236C512.321 59.7623 512.352 59.8082 512.374 59.8588C512.396 59.9107 512.408 59.9667 512.408 60.0233C512.408 60.0798 512.396 60.1358 512.374 60.1878C512.352 60.2381 512.321 60.2838 512.282 60.3223C512.242 60.3611 512.195 60.3921 512.144 60.4138C512.091 60.4365 512.034 60.448 511.976 60.4476C511.891 60.4485 511.808 60.4243 511.737 60.3781C511.666 60.3318 511.61 60.2656 511.576 60.1878C511.553 60.1358 511.542 60.0798 511.542 60.0233C511.542 59.9667 511.553 59.9108 511.576 59.8588C511.597 59.8082 511.629 59.7624 511.668 59.7236C511.707 59.6846 511.754 59.6537 511.805 59.6327C511.86 59.6103 511.918 59.5989 511.976 59.5994ZM511.976 60.354C512.02 60.3544 512.064 60.3455 512.104 60.3281C512.143 60.3112 512.178 60.2873 512.208 60.2574C512.246 60.2192 512.275 60.1722 512.291 60.1205C512.307 60.0688 512.31 60.0139 512.299 59.9608C512.289 59.9077 512.266 59.8579 512.232 59.8159C512.198 59.7738 512.154 59.7407 512.104 59.7195C512.064 59.7023 512.02 59.6936 511.976 59.694C511.932 59.6936 511.887 59.7023 511.846 59.7195C511.807 59.7357 511.771 59.7595 511.74 59.7895C511.679 59.8518 511.644 59.9359 511.644 60.0235C511.644 60.1111 511.679 60.1952 511.74 60.2574C511.771 60.2882 511.808 60.3127 511.849 60.3292C511.889 60.3458 511.933 60.3543 511.976 60.354ZM512.001 59.8249C512.043 59.8222 512.084 59.8342 512.118 59.8588C512.132 59.8699 512.143 59.884 512.15 59.8999C512.157 59.9159 512.16 59.9333 512.159 59.9507C512.16 59.9657 512.157 59.9806 512.152 59.9944C512.146 60.0083 512.137 60.0208 512.127 60.0312C512.101 60.0542 512.068 60.0679 512.034 60.0702L512.162 60.2189H512.062L511.942 60.0713H511.904V60.2189H511.819V59.8249H512.001ZM511.904 59.8988V60.0038H512C512.019 60.0047 512.037 60.0001 512.053 59.9907C512.06 59.9863 512.065 59.9804 512.069 59.9734C512.072 59.9663 512.074 59.9585 512.073 59.9507C512.074 59.9431 512.072 59.9354 512.068 59.9286C512.065 59.9217 512.06 59.9159 512.053 59.9117C512.037 59.9023 512.019 59.8978 512 59.8988H511.904Z" fill="black"/>
<path d="M501.031 23.4357H486.97V48.7038H501.031V23.4357Z" fill="#7375CF"/>
<path d="M487.863 36.0697C487.86 33.6363 488.412 31.2342 489.475 29.0453C490.539 26.8564 492.086 24.9381 494 23.4357C491.63 21.5724 488.783 20.4136 485.785 20.0918C482.787 19.77 479.758 20.2982 477.046 21.616C474.334 22.9339 472.048 24.9882 470.448 27.5441C468.848 30.1 468 33.0545 468 36.0697C468 39.085 468.848 42.0395 470.448 44.5954C472.048 47.1514 474.334 49.2056 477.046 50.5235C479.758 51.8413 482.787 52.3695 485.785 52.0477C488.783 51.7259 491.63 50.5672 494 48.7038C492.086 47.2014 490.539 45.2831 489.475 43.0942C488.412 40.9054 487.86 38.5032 487.863 36.0697Z" fill="#EB001B"/>
<path d="M518.467 46.0275V45.5102H518.675V45.4048H518.144V45.5102H518.353V46.0275H518.467ZM519.498 46.0275V45.4038H519.335L519.148 45.8328L518.961 45.4038H518.798V46.0275H518.913V45.5571L519.088 45.9627H519.208L519.383 45.556V46.0275H519.498Z" fill="#00A2E5"/>
<path d="M520 36.0697C520 39.085 519.152 42.0394 517.552 44.5954C515.953 47.1513 513.666 49.2056 510.954 50.5234C508.242 51.8413 505.214 52.3695 502.216 52.0477C499.218 51.7259 496.371 50.5672 494 48.7038C495.913 47.1998 497.459 45.2813 498.522 43.0927C499.586 40.9042 500.138 38.5029 500.138 36.0697C500.138 33.6366 499.586 31.2353 498.522 29.0468C497.459 26.8582 495.913 24.9397 494 23.4357C496.371 21.5724 499.218 20.4136 502.216 20.0918C505.214 19.77 508.242 20.2982 510.954 21.6161C513.666 22.9339 515.953 24.9882 517.552 27.5441C519.152 30.1001 520 33.0545 520 36.0697Z" fill="#00A2E5"/>
<path d="M362.055 29.8842C362.055 28.2917 363.305 27 364.845 27C366.387 27 367.636 28.2917 367.636 29.8842C367.636 31.4776 366.387 32.7665 364.845 32.7665C363.305 32.7665 362.055 31.4776 362.055 29.8842Z" fill="#862165"/>
<path d="M370.075 29.3587L375.733 28.3124V50.7593H370.075V29.3587Z" fill="#862165"/>
<path d="M378.339 29.3587V50.7593H384V28.3124L378.339 29.3587Z" fill="#862165"/>
<path d="M362.016 34.3411V50.7592H367.677V34.3411H362.016Z" fill="#862165"/>
<path d="M350.937 41.5231C350.937 36.7008 353.594 34.2747 358.824 34.1005C358.824 34.1005 359.768 34.063 360.326 34.1857V38.9846C357.01 39.1026 356.644 40.34 356.644 43.2261V50.7593H350.937V41.5231Z" fill="#862165"/>
<path d="M343.438 34.3998C343.236 34.9495 342.313 37.4514 340.243 40.0384V28.3124L334.402 29.5067V50.7593H340.243V44.189C341.935 46.8119 342.771 50.7593 342.771 50.7593H349.766C349.075 47.7861 346.048 42.3053 346.048 42.3053C348.766 38.7438 349.958 34.951 350.148 34.3225H343.467C343.46 34.341 343.45 34.367 343.438 34.3998Z" fill="#862165"/>
<path d="M322.234 34.9632C322.234 36.5041 323.891 36.6156 324.606 36.6634C329.852 37.0268 332.979 39.6806 332.979 43.7638C332.979 47.3664 330.183 51 323.946 51C321.055 51 318.587 50.7059 316.399 50.111V44.8672C317.86 45.4883 320.268 46.1402 322.748 46.1402C325.012 46.1402 326.358 45.3665 326.358 44.0513C326.358 42.4647 324.725 42.3613 324.099 42.3216L324.092 42.3212C316.787 41.8069 316 37.3406 316 35.4447C316 32.1521 318.261 28.3124 324.642 28.3124C328.343 28.3124 330.338 28.9091 332.057 29.5302L332.143 29.5573V34.6503L332.079 34.6316C331.389 34.33 330.579 34.034 330.579 34.034C329.123 33.5834 327.087 33.1038 325.513 33.1038C324.618 33.1038 322.234 33.1038 322.234 34.9632Z" fill="#862165"/>
<path d="M627.208 38.1492C626.982 39.8435 625.627 39.8435 624.384 39.8435H623.707L624.271 36.5678C624.271 36.3419 624.497 36.229 624.723 36.229H625.062C625.966 36.229 626.756 36.229 627.208 36.6808C627.208 37.1326 627.208 37.5844 627.208 38.1492ZM626.643 33.631H621.786C621.448 33.631 621.222 33.8569 621.109 34.1958L619.188 46.6207C619.188 46.8466 619.301 47.0725 619.64 47.0725H621.899C622.238 47.0725 622.464 46.8466 622.577 46.5077L623.142 43.1191C623.142 42.7803 623.481 42.5544 623.82 42.5544H625.401C628.564 42.5544 630.371 40.973 630.936 37.9233C631.162 36.5678 630.936 35.5513 630.371 34.7606C629.467 34.0829 628.225 33.631 626.643 33.631Z" fill="#263577"/>
<path d="M637.826 42.6674C637.6 44.0228 636.584 44.9265 635.228 44.9265C634.551 44.9265 633.986 44.7005 633.647 44.2487C633.308 43.7969 633.195 43.2322 633.308 42.6674C633.534 41.3119 634.551 40.4083 635.906 40.4083C636.584 40.4083 637.148 40.6342 637.487 41.086C637.713 41.4249 637.939 41.9897 637.826 42.6674ZM640.989 38.1492H638.73C638.504 38.1492 638.391 38.2622 638.278 38.4881L638.165 39.1658L638.052 38.9399C637.6 38.2622 636.471 37.9233 635.341 37.9233C632.743 37.9233 630.597 39.8436 630.145 42.5544C629.919 43.9099 630.258 45.1524 631.049 46.056C631.727 46.8467 632.743 47.1855 633.986 47.1855C636.019 47.1855 637.148 45.8301 637.148 45.8301L637.036 46.5078C637.036 46.7337 637.148 46.9596 637.487 46.9596H639.52C639.859 46.9596 640.085 46.7337 640.198 46.3948L641.441 38.4881C641.441 38.3752 641.328 38.1492 640.989 38.1492Z" fill="#263577"/>
<path d="M653.301 38.1492H650.929C650.703 38.1492 650.477 38.2621 650.364 38.488L647.201 43.2321L645.846 38.7139C645.733 38.3751 645.507 38.2621 645.168 38.2621H642.909C642.683 38.2621 642.457 38.488 642.57 38.8269L645.168 46.2818L642.796 49.6704C642.57 49.8963 642.796 50.3481 643.135 50.3481H645.507C645.733 50.3481 645.959 50.2352 646.072 50.0093L653.752 38.8269C653.865 38.488 653.64 38.1492 653.301 38.1492Z" fill="#263577"/>
<path d="M661.546 38.1492C661.32 39.8435 659.965 39.8435 658.722 39.8435H658.045L658.609 36.5678C658.609 36.3419 658.835 36.229 659.061 36.229H659.4C660.304 36.229 661.094 36.229 661.546 36.6808C661.659 37.1326 661.659 37.5844 661.546 38.1492ZM660.981 33.631H656.124C655.785 33.631 655.56 33.8569 655.447 34.1958L653.526 46.6207C653.526 46.8466 653.639 47.0725 653.978 47.0725H656.463C656.689 47.0725 656.915 46.9595 656.915 46.6207L657.48 43.1191C657.48 42.7803 657.819 42.5544 658.157 42.5544H659.739C662.901 42.5544 664.709 40.973 665.274 37.9233C665.499 36.5678 665.274 35.5513 664.709 34.7606C663.918 34.0829 662.676 33.631 660.981 33.631Z" fill="#2199D6"/>
<path d="M672.277 42.6674C672.051 44.0228 671.034 44.9265 669.679 44.9265C669.001 44.9265 668.436 44.7005 668.098 44.2487C667.759 43.7969 667.646 43.2322 667.759 42.6674C667.985 41.3119 669.001 40.4083 670.357 40.4083C671.034 40.4083 671.599 40.6342 671.938 41.086C672.164 41.4249 672.39 41.9897 672.277 42.6674ZM675.44 38.1492H673.181C672.955 38.1492 672.842 38.2622 672.729 38.4881L672.616 39.1658L672.503 38.9399C672.051 38.2622 670.921 37.9233 669.792 37.9233C667.194 37.9233 665.048 39.8436 664.596 42.5544C664.37 43.9099 664.709 45.1524 665.5 46.056C666.177 46.8467 667.194 47.1855 668.436 47.1855C670.47 47.1855 671.599 45.8301 671.599 45.8301L671.486 46.5078C671.486 46.7337 671.599 46.9596 671.938 46.9596H673.971C674.31 46.9596 674.536 46.7337 674.649 46.3948L675.891 38.4881C675.891 38.3752 675.665 38.1492 675.44 38.1492Z" fill="#2199D6"/>
<path d="M678.15 33.9699L676.117 46.6207C676.117 46.8466 676.23 47.0725 676.569 47.0725H678.602C678.941 47.0725 679.167 46.8466 679.28 46.5077L681.2 34.0829C681.2 33.857 681.087 33.631 680.748 33.631H678.489C678.376 33.631 678.263 33.8569 678.15 33.9699Z" fill="#2199D6"/>
<path d="M599.083 49.4445L599.422 47.0725H598.631H594.678L597.389 29.7906C597.389 29.7906 597.389 29.6777 597.502 29.6777H597.615H604.279C606.425 29.6777 608.006 30.1295 608.797 31.0331C609.136 31.4849 609.362 31.9367 609.475 32.3886C609.588 32.9533 609.588 33.5181 609.475 34.3088V34.7606L609.813 34.9865C610.152 35.0994 610.378 35.3253 610.604 35.5513C610.943 35.8901 611.169 36.3419 611.169 36.9067C611.282 37.4715 611.282 38.1492 611.056 38.9399C610.83 39.8435 610.604 40.5212 610.265 41.1989C609.926 41.7637 609.475 42.2155 609.023 42.6673C608.571 43.0062 607.893 43.2321 607.329 43.458C606.651 43.5709 605.973 43.6839 605.182 43.6839H604.618C604.279 43.6839 603.94 43.7968 603.601 44.0227C603.375 44.2487 603.149 44.5875 603.036 44.9264V45.1523L602.359 49.3316V49.4445V49.5575C602.359 49.5575 602.359 49.5575 602.246 49.5575H599.083V49.4445Z" fill="#263577"/>
<path d="M610.265 34.3088C610.265 34.4217 610.265 34.5347 610.152 34.6476C609.249 39.1658 606.312 40.6342 602.472 40.6342H600.551C600.1 40.6342 599.648 40.973 599.648 41.4248L598.631 47.7502L598.405 49.5575C598.405 49.8963 598.631 50.1223 598.857 50.1223H602.359C602.81 50.1223 603.149 49.7834 603.149 49.4445V49.2186L603.827 45.1523V44.9264C603.94 44.4746 604.279 44.2487 604.618 44.2487H605.182C608.571 44.2487 611.169 42.8932 611.847 38.9399C612.186 37.2456 611.96 35.8901 611.169 34.9865C610.943 34.7606 610.604 34.5347 610.265 34.3088Z" fill="#2199D6"/>
<path d="M609.361 33.9699C609.248 33.9699 609.136 33.857 608.91 33.857C608.797 33.857 608.571 33.744 608.458 33.744C607.893 33.631 607.328 33.631 606.764 33.631H601.568C601.455 33.631 601.342 33.631 601.229 33.744C601.003 33.8569 600.777 34.0829 600.777 34.3088L599.647 41.3119V41.5378C599.76 41.086 600.099 40.7471 600.551 40.7471H602.471C606.312 40.7471 609.248 39.1658 610.152 34.7606C610.152 34.6476 610.152 34.5347 610.265 34.4217C610.039 34.3088 609.813 34.1958 609.587 34.0829C609.474 33.9699 609.361 33.9699 609.361 33.9699Z" fill="#252C5E"/>
<path d="M600.777 34.3088C600.777 34.0829 601.003 33.857 601.229 33.744C601.342 33.744 601.455 33.6311 601.568 33.6311H606.764C607.328 33.6311 608.006 33.6311 608.458 33.744C608.571 33.744 608.797 33.744 608.91 33.857C609.023 33.857 609.136 33.9699 609.362 33.9699C609.475 33.9699 609.475 33.9699 609.588 34.0829C609.813 34.1959 610.039 34.3088 610.265 34.4218C610.491 32.7275 610.265 31.5979 609.362 30.5813C608.345 29.4518 606.538 29 604.279 29H597.615C597.163 29 596.711 29.3389 596.711 29.7907L594 47.1855C594 47.5244 594.226 47.8632 594.565 47.8632H598.631L599.648 41.3119L600.777 34.3088Z" fill="#263577"/>
<path d="M789.031 27.4356H774.97V52.7029H789.031V27.4356Z" fill="#FF5F00"/>
<path d="M775.863 40.0693C775.86 37.6359 776.412 35.2338 777.475 33.045C778.539 30.8562 780.086 28.938 782 27.4356C779.63 25.5723 776.783 24.4136 773.785 24.0918C770.787 23.77 767.758 24.2982 765.046 25.616C762.334 26.9338 760.048 28.988 758.448 31.5439C756.848 34.0997 756 37.0541 756 40.0693C756 43.0845 756.848 46.0388 758.448 48.5947C760.048 51.1506 762.334 53.2048 765.046 54.5226C767.758 55.8404 770.787 56.3686 773.785 56.0468C776.783 55.725 779.63 54.5662 782 52.7029C780.086 51.2005 778.539 49.2823 777.475 47.0935C776.412 44.9047 775.86 42.5027 775.863 40.0693Z" fill="#EB001B"/>
<path d="M808 40.0693C808 43.0844 807.152 46.0388 805.552 48.5946C803.953 51.1505 801.666 53.2047 798.954 54.5225C796.242 55.8403 793.214 56.3686 790.216 56.0468C787.218 55.725 784.371 54.5662 782 52.7029C783.913 51.199 785.459 49.2805 786.522 47.0921C787.586 44.9036 788.138 42.5023 788.138 40.0693C788.138 37.6362 787.586 35.2349 786.522 33.0465C785.459 30.858 783.913 28.9395 782 27.4356C784.371 25.5723 787.218 24.4135 790.216 24.0918C793.214 23.77 796.242 24.2982 798.954 25.616C801.666 26.9338 803.953 28.9881 805.552 31.5439C807.152 34.0998 808 37.0541 808 40.0693Z" fill="#F79E1B"/>
<path d="M806.467 50.0267V49.5094H806.675V49.4041H806.144V49.5094H806.353V50.0267H806.467ZM807.498 50.0267V49.403H807.335L807.148 49.832L806.961 49.403H806.798V50.0267H806.913V49.5563L807.088 49.9619H807.208L807.383 49.5552V50.0267H807.498Z" fill="#F79E1B"/>
</svg>
