<svg xmlns="http://www.w3.org/2000/svg" width="65" height="65" viewBox="0 0 65 65" fill="none"><rect x="0.578125" y="0.40625" width="64" height="64" rx="32" fill="#0047C8"></rect><path d="M29.8194 33.3984H20.5794C19.8461 33.3984 19.2461 33.9984 19.2461 34.7318V37.9851C19.2461 42.2651 22.7128 45.7318 26.9928 45.7318H29.2594C30.2861 45.7318 30.9128 44.6384 30.4194 43.7318C29.3661 41.7718 28.9528 39.4118 29.4728 36.9318C29.6594 36.0251 29.9794 35.1718 30.4061 34.3718C30.6328 33.9318 30.3261 33.3984 29.8194 33.3984ZM25.5794 40.3984C25.5794 40.9451 25.1261 41.3984 24.5794 41.3984C24.0328 41.3984 23.5794 40.9451 23.5794 40.3984V37.7318C23.5794 37.1851 24.0328 36.7318 24.5794 36.7318C25.1261 36.7318 25.5794 37.1851 25.5794 37.7318V40.3984Z" fill="white"></path><path d="M38.1661 19.0664H26.9928C22.7128 19.0664 19.2461 22.5331 19.2461 26.8131V30.0664C19.2461 30.7997 19.8461 31.3997 20.5794 31.3997H32.3661C32.6594 31.3997 32.9394 31.2931 33.1794 31.1064C34.3261 30.2264 35.6728 29.5864 37.1128 29.2931C39.5928 28.7731 41.9528 29.1864 43.9128 30.2397C44.8194 30.7197 45.9128 30.1064 45.9128 29.0797V26.8131C45.9128 22.5331 42.4461 19.0664 38.1661 19.0664ZM25.5794 27.3997C25.5794 27.9464 25.1261 28.3997 24.5794 28.3997C24.0328 28.3997 23.5794 27.9464 23.5794 27.3997V24.7331C23.5794 24.1864 24.0328 23.7331 24.5794 23.7331C25.1261 23.7331 25.5794 24.1864 25.5794 24.7331V27.3997ZM30.9128 27.3997C30.9128 27.9464 30.4594 28.3997 29.9128 28.3997C29.3661 28.3997 28.9128 27.9464 28.9128 27.3997V24.7331C28.9128 24.1864 29.3661 23.7331 29.9128 23.7331C30.4594 23.7331 30.9128 24.1864 30.9128 24.7331V27.3997ZM40.5794 27.0664H35.2461C34.6994 27.0664 34.2461 26.6131 34.2461 26.0664C34.2461 25.5197 34.6994 25.0664 35.2461 25.0664H40.5794C41.1261 25.0664 41.5794 25.5197 41.5794 26.0664C41.5794 26.6131 41.1261 27.0664 40.5794 27.0664Z" fill="white"></path><path d="M39.2461 31.0664C34.8328 31.0664 31.2461 34.6531 31.2461 39.0664C31.2461 43.4797 34.8328 47.0664 39.2461 47.0664C43.6594 47.0664 47.2461 43.4797 47.2461 39.0664C47.2461 34.6531 43.6594 31.0664 39.2461 31.0664ZM43.1528 40.6664C42.9394 41.1864 42.6328 41.6531 42.2328 42.0531C41.4328 42.8531 40.3794 43.2931 39.2461 43.2931C38.3394 43.2931 37.4861 42.9997 36.7661 42.4664V42.6531C36.7661 43.0664 36.4328 43.4131 36.0061 43.4131C35.5794 43.3997 35.2461 43.0664 35.2461 42.6397V40.7197C35.2461 40.3064 35.5794 39.9597 36.0061 39.9597H37.9261C38.3394 39.9597 38.6861 40.2931 38.6861 40.7197C38.6861 41.1064 38.4061 41.3997 38.0328 41.4531C39.0461 41.9464 40.3394 41.7864 41.1528 40.9731C41.4061 40.7197 41.6061 40.4131 41.7394 40.0797C41.8994 39.6931 42.3394 39.5064 42.7261 39.6664C43.1261 39.8264 43.3128 40.2797 43.1528 40.6664ZM43.2461 37.4131C43.2461 37.8264 42.9128 38.1731 42.4861 38.1731H40.5661C40.1528 38.1731 39.8061 37.8397 39.8061 37.4131C39.8061 37.0264 40.0861 36.7331 40.4594 36.6797C39.4461 36.1864 38.1528 36.3464 37.3261 37.1597C37.0994 37.3864 36.9261 37.6397 36.7928 37.9197C36.6594 38.1997 36.3928 38.3597 36.1128 38.3597C36.0061 38.3597 35.8994 38.3331 35.7928 38.2931C35.4194 38.1197 35.2461 37.6664 35.4328 37.2797C35.6461 36.8397 35.9261 36.4397 36.2594 36.0931C37.0594 35.2931 38.1128 34.8531 39.2461 34.8531C40.1528 34.8531 41.0061 35.1464 41.7261 35.6797V35.5064C41.7261 35.0931 42.0594 34.7464 42.4861 34.7464C42.9128 34.7464 43.2461 35.0664 43.2461 35.4931V37.4131Z" fill="white"></path></svg>