<svg xmlns="http://www.w3.org/2000/svg" width="65" height="65" viewBox="0 0 65 65" fill="none"><rect x="0.789062" y="0.40625" width="64" height="64" rx="32" fill="#0047C8"></rect><path d="M43.5904 28.6949C41.177 28.6949 40.1904 26.9883 41.3904 24.8949C42.0837 23.6816 41.6704 22.1349 40.457 21.4416L38.1504 20.1216C37.097 19.4949 35.737 19.8683 35.1104 20.9216L34.9637 21.1749C33.7637 23.2683 31.7904 23.2683 30.577 21.1749L30.4304 20.9216C29.8304 19.8683 28.4704 19.4949 27.417 20.1216L25.1104 21.4416C23.897 22.1349 23.4837 23.6949 24.177 24.9083C25.3904 26.9883 24.4037 28.6949 21.9904 28.6949C20.6037 28.6949 19.457 29.8283 19.457 31.2283V33.5749C19.457 34.9616 20.5904 36.1083 21.9904 36.1083C24.4037 36.1083 25.3904 37.8149 24.177 39.9083C23.4837 41.1216 23.897 42.6683 25.1104 43.3616L27.417 44.6816C28.4704 45.3083 29.8304 44.9349 30.457 43.8816L30.6037 43.6283C31.8037 41.5349 33.777 41.5349 34.9904 43.6283L35.137 43.8816C35.7637 44.9349 37.1237 45.3083 38.177 44.6816L40.4837 43.3616C41.697 42.6683 42.1104 41.1083 41.417 39.9083C40.2037 37.8149 41.1904 36.1083 43.6037 36.1083C44.9904 36.1083 46.137 34.9749 46.137 33.5749V31.2283C46.1237 29.8416 44.9904 28.6949 43.5904 28.6949ZM32.7904 36.7349C30.4037 36.7349 28.457 34.7883 28.457 32.4016C28.457 30.0149 30.4037 28.0683 32.7904 28.0683C35.177 28.0683 37.1237 30.0149 37.1237 32.4016C37.1237 34.7883 35.177 36.7349 32.7904 36.7349Z" fill="white"></path></svg>