<svg xmlns="http://www.w3.org/2000/svg" width="64" height="65" viewBox="0 0 64 65" fill="none"><rect y="0.40625" width="64" height="64" rx="32" fill="#0047C8"></rect><path d="M43.8811 31.2242V25.3709C43.8811 24.2776 43.0544 23.0376 42.0278 22.6242L34.6011 19.5842C32.9344 18.9042 31.0544 18.9042 29.3878 19.5842L21.9611 22.6242C20.9478 23.0376 20.1211 24.2776 20.1211 25.3709V31.2242C20.1211 37.7442 24.8544 43.8509 31.3211 45.6376C31.7611 45.7576 32.2411 45.7576 32.6811 45.6376C39.1478 43.8509 43.8811 37.7442 43.8811 31.2242ZM33.0011 33.5576V37.0642C33.0011 37.6109 32.5478 38.0642 32.0011 38.0642C31.4544 38.0642 31.0011 37.6109 31.0011 37.0642V33.5576C29.6544 33.1309 28.6678 31.8776 28.6678 30.3976C28.6678 28.5576 30.1611 27.0642 32.0011 27.0642C33.8411 27.0642 35.3344 28.5576 35.3344 30.3976C35.3344 31.8909 34.3478 33.1309 33.0011 33.5576Z" fill="white"></path></svg>