<svg xmlns="http://www.w3.org/2000/svg" width="65" height="65" viewBox="0 0 65 65" fill="none"><rect x="0.210938" y="0.40625" width="64" height="64" rx="32" fill="#0047C8"></rect><path d="M37.7989 19.0664H26.6256C21.7722 19.0664 18.8789 21.9597 18.8789 26.8131V37.9731C18.8789 42.8397 21.7722 45.7331 26.6256 45.7331H37.7856C42.6389 45.7331 45.5322 42.8397 45.5322 37.9864V26.8131C45.5456 21.9597 42.6522 19.0664 37.7989 19.0664ZM38.7189 31.7731C38.7189 32.2931 38.3056 32.7064 37.7856 32.7064C37.2656 32.7064 36.8522 32.2931 36.8522 31.7731V31.5331L33.2256 35.1597C33.0256 35.3597 32.7589 35.4531 32.4789 35.4264C32.1989 35.3997 31.9456 35.2531 31.7989 35.0131L30.4389 32.9864L27.2656 36.1597C27.0789 36.3464 26.8522 36.4264 26.6122 36.4264C26.3722 36.4264 26.1322 36.3331 25.9589 36.1597C25.5989 35.7997 25.5989 35.2131 25.9589 34.8397L29.9322 30.8664C30.1322 30.6664 30.3989 30.5731 30.6789 30.5997C30.9589 30.6264 31.2122 30.7731 31.3589 31.0131L32.7189 33.0397L35.5322 30.2264H35.2922C34.7722 30.2264 34.3589 29.8131 34.3589 29.2931C34.3589 28.7731 34.7722 28.3597 35.2922 28.3597H37.7722C37.8922 28.3597 38.0122 28.3864 38.1322 28.4264C38.3589 28.5197 38.5456 28.7064 38.6389 28.9331C38.6922 29.0531 38.7056 29.1731 38.7056 29.2931V31.7731H38.7189Z" fill="white"></path></svg>