<svg xmlns="http://www.w3.org/2000/svg" width="193" height="44" viewBox="0 0 193 44" fill="none"><path d="M192.822 5.30469H189.551V19.7131H192.822V5.30469Z" fill="white"></path><path d="M171.327 19.791H172.962V10.5229H171.327H169.691V17.1429H163.772V10.5229H154.894H154.037C151.622 10.5229 150.221 10.9902 149.442 12.2363V10.5229H146.093V17.1429H133.943V5.30469H130.672V19.7131H154.971H171.327V19.791ZM149.442 17.065V15.741C149.442 14.3391 150.298 13.2488 153.102 13.2488H154.894H160.345V17.065H154.894H149.442Z" fill="white"></path><path d="M127.32 18.853V10.5195H123.971V17.9184C123.971 19.9434 123.27 20.6443 122.257 20.6443C121.712 20.6443 121.167 20.4886 120.855 20.2549V22.9808C121.401 23.1366 122.102 23.3703 122.88 23.3703C126.152 23.3703 127.32 21.5011 127.32 18.853Z" fill="white"></path><path d="M45.2341 19.791H66.1846H91.1852V5.30469H87.9141V17.065H84.2535V5.30469H80.9825V17.065H74.9854V10.445H71.7144H66.1846H65.3279C62.9914 10.445 61.5117 10.9123 60.6549 12.1584V10.445H57.3838V17.065H45.3898V10.445H42.0409V17.8439C42.0409 19.8688 41.3399 20.5698 40.3274 20.5698C39.7822 20.5698 39.2371 20.414 38.8477 20.1804V22.9063C39.4707 23.0621 40.1717 23.2957 40.8726 23.2957C43.8322 23.3736 44.9225 21.9717 45.2341 19.791ZM60.6549 15.741C60.6549 14.3391 61.6674 13.2488 64.3933 13.2488H66.1846H71.7144V17.065H66.1846H60.6549V15.741Z" fill="white"></path><path d="M6.68101 7.71907V5.30469H6.60312H3.33203V7.71907H6.60312H6.68101Z" fill="white"></path><path d="M30.5912 8.57422H24.9057H24.8279H24.75C20.6222 8.57422 19.2203 11.1444 19.2203 13.403V15.8952H24.8279H24.9057H27.2422V17.1414H24.9057H24.8279H12.2887V10.5213H6.6032H6.52531H6.44743C2.39751 10.5213 0.839844 13.0136 0.839844 15.2722V17.1414V19.7894H6.52531H6.6032H24.8279H24.9057H30.5912V8.57422ZM8.93969 17.0635H6.6032H6.52531H4.18882V15.7395C4.18882 13.6366 5.51283 13.2472 6.44743 13.2472H6.52531H6.6032H8.93969V17.0635ZM27.3201 13.2472H24.9836H24.9057H22.5692C22.5692 11.5338 23.6596 11.3001 24.9057 11.3001H24.9836H27.3201V13.2472Z" fill="white"></path><path d="M37.5992 5.30469H34.3281V19.7131H37.5992V5.30469Z" fill="white"></path><path d="M10.8844 5.30469H7.61328V7.71907H10.8844V5.30469Z" fill="white"></path><path d="M27.3219 7.71907V5.30469H24.9854H24.0508V7.71907H24.9854H27.3219Z" fill="white"></path><path d="M172.962 7.71907V5.30469H171.327H169.691V7.71907H171.327H172.962Z" fill="white"></path><path d="M178.723 13.3267L179.969 16.0526C180.748 16.0526 181.371 16.0526 181.838 16.0526C181.838 15.5853 181.838 14.3391 181.838 12.8594L178.723 6.08352L178.334 5.30469H175.062L178.723 13.3267Z" fill="white"></path><path d="M106.216 19.7917H119.69V16.9879C119.69 12.5486 112.992 13.4053 113.693 11.7698C114.004 10.9909 116.418 10.7573 118.677 11.614L118.833 9.12175C114.549 7.79773 110.499 9.04386 110.188 11.7698C109.876 15.5861 116.418 14.1842 116.418 17.2216H106.138C103.646 17.2216 101.854 15.8197 101.699 13.4832L98.9727 14.1063C99.3621 17.3774 102.166 19.7917 106.216 19.7917Z" fill="white"></path><path d="M114.47 21.1914H111.121V23.6058H114.47V21.1914Z" fill="white"></path><path d="M110.033 21.1914H106.762V23.6058H110.033V21.1914Z" fill="white"></path><path d="M176.31 17.065L175.609 19.791H178.725H186.201V5.30469H182.93V17.065H178.725H176.31Z" fill="white"></path><path d="M174.596 3.43434H177.868L177.478 2.65551H176.699C176.154 2.65551 175.765 2.42186 175.765 1.95456C175.687 1.48726 176.388 1.09784 177.244 1.40938L176.855 0.708428C176.388 0.552661 174.986 0.630545 174.83 1.79879C174.83 2.18821 174.986 2.42186 175.297 2.73339H174.207L174.596 3.43434Z" fill="white"></path><path d="M7.45919 31.3164H5.35634L0.605469 43.6998H4.18809L5.20058 41.1297H7.45919H9.63992L10.6524 43.6998H14.235L9.48415 31.3164H7.45919ZM7.45919 38.7932H6.05729L7.45919 33.8866L8.86109 38.7932H7.45919Z" fill="white"></path><path d="M17.8177 31.3164H14.4688V43.6998H22.958V41.2076H17.8177V31.3164Z" fill="white"></path><path d="M49.7512 39.8057L45.4677 31.3164H41.3398V43.6998H44.2994L44.2215 35.2106L48.583 43.6998H52.7887V31.3164H49.7512V39.8057Z" fill="white"></path><path d="M57.306 34.7428C57.306 33.6524 58.7079 33.5745 59.6425 33.5745C60.4992 33.5745 61.5117 33.7303 62.3684 34.1976L62.5242 31.6275C61.7453 31.3938 60.4992 31.1602 59.331 31.1602C56.8387 31.1602 53.957 31.939 53.957 34.9764C53.957 39.4158 59.7204 38.0139 59.7204 40.3504C59.7204 41.2071 58.7079 41.5186 57.6954 41.5186C56.3714 41.5186 55.2032 41.1292 54.4243 40.7398L54.0349 43.3878C55.2032 43.7772 56.5272 43.933 57.6954 43.933C60.4213 43.933 63.2251 43.0763 63.2251 39.961C63.303 35.4437 57.306 36.7677 57.306 34.7428Z" fill="white"></path><path d="M91.9625 31.3164H88.6914V43.6998H91.9625V31.3164Z" fill="white"></path><path d="M102.786 38.6374H107.927V36.223H102.786V33.7308H108.316V31.3164H99.4375V43.6998H108.472V41.2855H102.786V38.6374Z" fill="white"></path><path d="M121.091 31.3164H117.431L115.328 35.4442L113.303 31.3164H109.331L112.991 37.2355L108.941 43.6998H112.758L115.172 39.1826L117.586 43.6998H121.481L117.431 37.2355L121.091 31.3164Z" fill="white"></path><path d="M128.179 41.5186C125.765 41.5186 123.974 40.1167 123.974 37.7023C123.974 35.3658 125.609 33.5745 127.868 33.5745C129.036 33.5745 129.971 33.964 131.061 34.4313L131.295 31.7832C130.126 31.3938 128.88 31.1602 127.634 31.1602C123.506 31.1602 120.547 33.263 120.547 37.6245C120.547 42.1417 124.363 43.8551 127.634 43.8551C129.348 43.8551 130.36 43.6215 131.373 43.3878L131.217 40.8177C130.36 41.1292 129.192 41.5186 128.179 41.5186Z" fill="white"></path><path d="M139.782 36.1452H135.888V31.3164H132.617V43.6998H135.888V38.4817H139.782V43.6998H143.131V31.3164H139.782V36.1452Z" fill="white"></path><path d="M166.11 39.8057L161.905 31.3164H157.621V43.6998H160.736L160.581 35.2106H160.659L165.02 43.6998H169.148V31.3164H166.11V39.8057Z" fill="white"></path><path d="M177.166 38.8703H179.113V41.2068C178.724 41.3626 178.334 41.4405 177.867 41.4405C175.453 41.4405 173.739 40.0386 173.739 37.6242C173.739 34.6647 175.998 33.4964 178.646 33.4964C179.425 33.4964 180.593 33.7301 181.683 34.2752L181.917 31.6272C180.671 31.1599 178.957 31.082 178.178 31.082C173.583 31.082 170.234 32.8733 170.234 37.5463C170.234 42.0636 174.051 43.777 177.478 43.777C178.568 43.777 180.126 43.777 182.306 43.2318V36.3781H177.088V38.8703H177.166Z" fill="white"></path><path d="M187.212 38.6374H192.274V36.223H187.212V33.7308H192.664V31.3164H183.785V43.6998H192.82V41.2855H187.212V38.6374Z" fill="white"></path><path d="M34.2524 31.3164H32.1496L27.4766 43.6998H31.0592L32.0717 41.1297H34.3303H36.5889L37.6014 43.6998H41.184L36.2774 31.3164H34.2524ZM34.2524 38.7932H32.8505L34.2524 33.8866L35.6543 38.7932H34.2524Z" fill="white"></path><path d="M69.9204 31.3164H67.8954L63.1445 43.6998H66.7272L67.7396 41.1297H69.9983H72.2569L73.2693 43.6998H76.852L72.179 31.3164H69.9204ZM69.9204 38.7932H68.5185L69.9204 33.8866L71.3223 38.7932H69.9204Z" fill="white"></path><path d="M150.53 31.3164H148.505L143.754 43.6998H147.337L148.349 41.1297H150.608H152.866L153.879 43.6998H157.383L152.555 31.3164H150.53ZM150.53 38.7932H149.128L150.53 33.8866L151.932 38.7932H150.53Z" fill="white"></path><path d="M84.7966 37.6249C86.3543 37.1576 87.211 36.1452 87.211 34.4317C87.211 32.3289 85.4197 31.3164 83.1611 31.3164H82.2265H77.1641V43.6998H80.513V38.8711C80.6688 38.8711 81.9149 38.949 82.1486 39.0268C82.1486 39.0268 82.1486 39.0268 82.2265 39.0268C83.239 39.572 83.862 42.6095 84.3293 43.6219H87.8341L86.5879 40.3509C85.9649 38.8711 85.8091 37.9365 84.7966 37.6249ZM82.2265 36.4567H80.5909V33.7308H82.2265H82.3043C83.2389 33.8087 83.9399 34.1981 83.9399 35.0548C83.862 36.1452 83.0832 36.3788 82.2265 36.4567Z" fill="white"></path></svg>