<svg width="137" height="131" xmlns="http://www.w3.org/2000/svg" xmlns:xlink="http://www.w3.org/1999/xlink"><defs><filter x="-44.2%" y="-113.2%" width="188.5%" height="336.8%" filterUnits="objectBoundingBox" id="filter-1"><feOffset dy="6" in="SourceAlpha" result="shadowOffsetOuter1"/><feGaussianBlur stdDeviation="8" in="shadowOffsetOuter1" result="shadowBlurOuter1"/><feColorMatrix values="0 0 0 0 0 0 0 0 0 0 0 0 0 0 0 0 0 0 0.249433877 0" in="shadowBlurOuter1" result="shadowMatrixOuter1"/><feMerge><feMergeNode in="shadowMatrixOuter1"/><feMergeNode in="SourceGraphic"/></feMerge></filter><path d="M-.476 23.276v-9.31h13.335c9.59-2.857 23.526-4.655 39.036-4.655 15.511 0 29.447 1.798 39.037 4.655h13.335v9.31c0 7.713-23.448 13.966-52.372 13.966S-.476 30.989-.476 23.276z" id="path-2"/><filter x="-3.8%" y="-7.2%" width="107.6%" height="128.6%" filterUnits="objectBoundingBox" id="filter-4"><feOffset dy="2" in="SourceAlpha" result="shadowOffsetOuter1"/><feGaussianBlur stdDeviation="1" in="shadowOffsetOuter1" result="shadowBlurOuter1"/><feColorMatrix values="0 0 0 0 0 0 0 0 0 0 0 0 0 0 0 0 0 0 0.0979110054 0" in="shadowBlurOuter1"/></filter><path d="M1.164 23.276v-9.31h13.335c9.59-2.857 23.526-4.655 39.036-4.655 15.511 0 29.447 1.798 39.037 4.655h13.335v9.31c0 7.713-23.448 13.966-52.372 13.966S1.164 30.989 1.164 23.276z" id="path-5"/><filter x="-3.8%" y="-7.2%" width="107.6%" height="128.6%" filterUnits="objectBoundingBox" id="filter-7"><feOffset dy="2" in="SourceAlpha" result="shadowOffsetOuter1"/><feGaussianBlur stdDeviation="1" in="shadowOffsetOuter1" result="shadowBlurOuter1"/><feColorMatrix values="0 0 0 0 0 0 0 0 0 0 0 0 0 0 0 0 0 0 0.0979110054 0" in="shadowBlurOuter1"/></filter><path d="M1.164 23.276v-9.31h13.335c9.59-2.857 23.526-4.655 39.036-4.655 15.511 0 29.447 1.798 39.037 4.655h13.335v9.31c0 7.713-23.448 13.966-52.372 13.966S1.164 30.989 1.164 23.276z" id="path-8"/><filter x="-3.8%" y="-7.2%" width="107.6%" height="128.6%" filterUnits="objectBoundingBox" id="filter-10"><feOffset dy="2" in="SourceAlpha" result="shadowOffsetOuter1"/><feGaussianBlur stdDeviation="1" in="shadowOffsetOuter1" result="shadowBlurOuter1"/><feColorMatrix values="0 0 0 0 0 0 0 0 0 0 0 0 0 0 0 0 0 0 0.0979110054 0" in="shadowBlurOuter1"/></filter><path d="M1.164 23.276v-9.31h13.335c9.59-2.857 23.526-4.655 39.036-4.655 15.511 0 29.447 1.798 39.037 4.655h13.335v9.31c0 7.713-23.448 13.966-52.372 13.966S1.164 30.989 1.164 23.276z" id="path-11"/><filter x="-3.8%" y="-7.2%" width="107.6%" height="128.6%" filterUnits="objectBoundingBox" id="filter-13"><feOffset dy="2" in="SourceAlpha" result="shadowOffsetOuter1"/><feGaussianBlur stdDeviation="1" in="shadowOffsetOuter1" result="shadowBlurOuter1"/><feColorMatrix values="0 0 0 0 0 0 0 0 0 0 0 0 0 0 0 0 0 0 0.0979110054 0" in="shadowBlurOuter1"/></filter><path d="M1.164 23.276v-9.31h13.335c9.59-2.857 23.526-4.655 39.036-4.655 15.511 0 29.447 1.798 39.037 4.655h13.335v9.31c0 7.713-23.448 13.966-52.372 13.966S1.164 30.989 1.164 23.276z" id="path-14"/><filter x="-3.8%" y="-7.2%" width="107.6%" height="128.6%" filterUnits="objectBoundingBox" id="filter-16"><feOffset dy="2" in="SourceAlpha" result="shadowOffsetOuter1"/><feGaussianBlur stdDeviation="1" in="shadowOffsetOuter1" result="shadowBlurOuter1"/><feColorMatrix values="0 0 0 0 0 0 0 0 0 0 0 0 0 0 0 0 0 0 0.0979110054 0" in="shadowBlurOuter1"/></filter><path d="M1.164 23.276v-9.31h13.335c9.59-2.857 23.526-4.655 39.036-4.655 15.511 0 29.447 1.798 39.037 4.655h13.335v9.31c0 7.713-23.448 13.966-52.372 13.966S1.164 30.989 1.164 23.276z" id="path-17"/><filter x="-3.8%" y="-7.2%" width="107.6%" height="128.6%" filterUnits="objectBoundingBox" id="filter-19"><feOffset dy="2" in="SourceAlpha" result="shadowOffsetOuter1"/><feGaussianBlur stdDeviation="1" in="shadowOffsetOuter1" result="shadowBlurOuter1"/><feColorMatrix values="0 0 0 0 0 0 0 0 0 0 0 0 0 0 0 0 0 0 0.0979110054 0" in="shadowBlurOuter1"/></filter><path d="M1.164 23.276v-9.31h13.335c9.59-2.857 23.526-4.655 39.036-4.655 15.511 0 29.447 1.798 39.037 4.655h13.335v9.31c0 7.713-23.448 13.966-52.372 13.966S1.164 30.989 1.164 23.276z" id="path-20"/><filter x="-3.8%" y="-7.2%" width="107.6%" height="128.6%" filterUnits="objectBoundingBox" id="filter-22"><feOffset dy="2" in="SourceAlpha" result="shadowOffsetOuter1"/><feGaussianBlur stdDeviation="1" in="shadowOffsetOuter1" result="shadowBlurOuter1"/><feColorMatrix values="0 0 0 0 0 0 0 0 0 0 0 0 0 0 0 0 0 0 0.0979110054 0" in="shadowBlurOuter1"/></filter></defs><g id="Page-1" stroke="none" stroke-width="1" fill="none" fill-rule="evenodd"><g id="IE_home_xl_long_form" transform="translate(-894 -3853)"><g id="Group-4" transform="translate(0 3214)"><g id="ic_coins" transform="translate(899 639)"><g id="Coin-6" filter="url(#filter-1)" transform="translate(11.596 71.508)"><mask id="mask-3" fill="#fff"><use xlink:href="#path-2"/></mask><g id="Oval-3"><use fill="#000" filter="url(#filter-4)" xlink:href="#path-2"/><use fill="#E4A51C" xlink:href="#path-2"/></g><ellipse id="Oval-2" fill="#FFD400" cx="51.895" cy="13.966" rx="52.372" ry="13.966"/><path d="M51.895 25.604c24.425 0 44.225-5.21 44.225-11.638S76.32 2.328 51.895 2.328c-24.424 0-44.224 5.21-44.224 11.638 0 6.427 19.8 11.638 44.224 11.638zm0-1.164c22.497 0 40.734-4.69 40.734-10.474 0-5.785-18.237-10.475-40.734-10.475-22.496 0-40.733 4.69-40.733 10.475 0 5.785 18.237 10.474 40.733 10.474z" id="Oval-3" fill="#E4A51C"/></g><g id="Coin-5" transform="translate(.646 58.706)"><mask id="mask-6" fill="#fff"><use xlink:href="#path-5"/></mask><g id="Oval-3"><use fill="#000" filter="url(#filter-7)" xlink:href="#path-5"/><use fill="#E4A51C" xlink:href="#path-5"/></g><ellipse id="Oval-2" fill="#FFD400" cx="53.535" cy="13.966" rx="52.372" ry="13.966"/><path d="M53.535 25.604c24.425 0 44.225-5.21 44.225-11.638S77.96 2.328 53.535 2.328c-24.424 0-44.224 5.21-44.224 11.638 0 6.427 19.8 11.638 44.224 11.638zm0-1.164c22.497 0 40.734-4.69 40.734-10.474 0-5.785-18.237-10.475-40.734-10.475-22.496 0-40.733 4.69-40.733 10.475 0 5.785 18.237 10.474 40.733 10.474z" id="Oval-3" fill="#E4A51C"/></g><g id="Coin-4" transform="translate(8.792 48.232)"><mask id="mask-9" fill="#fff"><use xlink:href="#path-8"/></mask><g id="Oval-3"><use fill="#000" filter="url(#filter-10)" xlink:href="#path-8"/><use fill="#E4A51C" xlink:href="#path-8"/></g><ellipse id="Oval-2" fill="#FFD400" cx="53.535" cy="13.966" rx="52.372" ry="13.966"/><path d="M53.535 25.604c24.425 0 44.225-5.21 44.225-11.638S77.96 2.328 53.535 2.328c-24.424 0-44.224 5.21-44.224 11.638 0 6.427 19.8 11.638 44.224 11.638zm0-1.164c22.497 0 40.734-4.69 40.734-10.474 0-5.785-18.237-10.475-40.734-10.475-22.496 0-40.733 4.69-40.733 10.475 0 5.785 18.237 10.474 40.733 10.474z" id="Oval-3" fill="#E4A51C"/></g><g id="Coin-3" transform="translate(12.284 36.594)"><mask id="mask-12" fill="#fff"><use xlink:href="#path-11"/></mask><g id="Oval-3"><use fill="#000" filter="url(#filter-13)" xlink:href="#path-11"/><use fill="#E4A51C" xlink:href="#path-11"/></g><ellipse id="Oval-2" fill="#FFD400" cx="53.535" cy="13.966" rx="52.372" ry="13.966"/><path d="M53.535 25.604c24.425 0 44.225-5.21 44.225-11.638S77.96 2.328 53.535 2.328c-24.424 0-44.224 5.21-44.224 11.638 0 6.427 19.8 11.638 44.224 11.638zm0-1.164c22.497 0 40.734-4.69 40.734-10.474 0-5.785-18.237-10.475-40.734-10.475-22.496 0-40.733 4.69-40.733 10.475 0 5.785 18.237 10.474 40.733 10.474z" id="Oval-3" fill="#E4A51C"/></g><g id="Coin-2" transform="translate(2.973 26.12)"><mask id="mask-15" fill="#fff"><use xlink:href="#path-14"/></mask><g id="Oval-3"><use fill="#000" filter="url(#filter-16)" xlink:href="#path-14"/><use fill="#E4A51C" xlink:href="#path-14"/></g><ellipse id="Oval-2" fill="#FFD400" cx="53.535" cy="13.966" rx="52.372" ry="13.966"/><path d="M53.535 25.604c24.425 0 44.225-5.21 44.225-11.638S77.96 2.328 53.535 2.328c-24.424 0-44.224 5.21-44.224 11.638 0 6.427 19.8 11.638 44.224 11.638zm0-1.164c22.497 0 40.734-4.69 40.734-10.474 0-5.785-18.237-10.475-40.734-10.475-22.496 0-40.733 4.69-40.733 10.475 0 5.785 18.237 10.474 40.733 10.474z" id="Oval-3" fill="#E4A51C"/></g><g id="Coin-1" transform="translate(7.628 13.318)"><mask id="mask-18" fill="#fff"><use xlink:href="#path-17"/></mask><g id="Oval-3"><use fill="#000" filter="url(#filter-19)" xlink:href="#path-17"/><use fill="#E4A51C" xlink:href="#path-17"/></g><ellipse id="Oval-2" fill="#FFD400" cx="53.535" cy="13.966" rx="52.372" ry="13.966"/><path d="M53.535 25.604c24.425 0 44.225-5.21 44.225-11.638S77.96 2.328 53.535 2.328c-24.424 0-44.224 5.21-44.224 11.638 0 6.427 19.8 11.638 44.224 11.638zm0-1.164c22.497 0 40.734-4.69 40.734-10.474 0-5.785-18.237-10.475-40.734-10.475-22.496 0-40.733 4.69-40.733 10.475 0 5.785 18.237 10.474 40.733 10.474z" id="Oval-3" fill="#E4A51C"/></g><g id="Coin-7" transform="translate(4.137 .516)"><mask id="mask-21" fill="#fff"><use xlink:href="#path-20"/></mask><g id="Oval-3"><use fill="#000" filter="url(#filter-22)" xlink:href="#path-20"/><use fill="#E4A51C" xlink:href="#path-20"/></g><ellipse id="Oval-2" fill="#FFD400" cx="53.535" cy="13.966" rx="52.372" ry="13.966"/><path d="M53.535 25.604c24.425 0 44.225-5.21 44.225-11.638S77.96 2.328 53.535 2.328c-24.424 0-44.224 5.21-44.224 11.638 0 6.427 19.8 11.638 44.224 11.638zm0-1.164c22.497 0 40.734-4.69 40.734-10.474 0-5.785-18.237-10.475-40.734-10.475-22.496 0-40.733 4.69-40.733 10.475 0 5.785 18.237 10.474 40.733 10.474z" id="Oval-3" fill="#E4A51C"/></g></g></g></g></g></svg>