<svg width="60" height="60" xmlns="http://www.w3.org/2000/svg" xmlns:xlink="http://www.w3.org/1999/xlink"><defs><filter x="-32%" y="-32%" width="164%" height="164%" filterUnits="objectBoundingBox" id="filter-1"><feOffset dy="3" in="SourceAlpha" result="shadowOffsetOuter1"/><feGaussianBlur stdDeviation="2.5" in="shadowOffsetOuter1" result="shadowBlurOuter1"/><feColorMatrix values="0 0 0 0 0 0 0 0 0 0 0 0 0 0 0 0 0 0 0.2 0" in="shadowBlurOuter1" result="shadowMatrixOuter1"/><feMerge><feMergeNode in="shadowMatrixOuter1"/><feMergeNode in="SourceGraphic"/></feMerge></filter><path d="M24.986 49.98c13.801 0 24.99-11.189 24.99-24.99C49.976 11.188 38.787 0 24.986 0 11.336 0 .243 10.943 0 24.534c-.003.152.143.601.216.674l11.808 11.724a1 1 0 0 0 1.324.075l28.325-22.351a.5.5 0 0 1 .702.701l-25.83 32.799c-.122.16-.082.329.037.375a24.947 24.947 0 0 0 8.404 1.449z" id="path-2"/><linearGradient x1="78.693%" y1="3.049%" x2="60.623%" y2="87.212%" id="linearGradient-4"><stop offset="0%"/><stop stop-opacity="0" offset="100%"/></linearGradient></defs><g id="Page-1" stroke="none" stroke-width="1" fill="none" fill-rule="evenodd"><g id="IE_home_xl_long_form" transform="translate(-451 -3723)"><g id="Group-4" transform="translate(0 3214)"><g id="ic_IE_tag_3" filter="url(#filter-1)" transform="translate(456 511)"><mask id="mask-3" fill="#fff"><use xlink:href="#path-2"/></mask><use id="Oval-Copy-2" fill="#3696F5" fill-rule="nonzero" xlink:href="#path-2"/><path id="Rectangle" fill="url(#linearGradient-4)" fill-rule="nonzero" opacity=".483" style="mix-blend-mode:overlay" mask="url(#mask-3)" d="M41.947 15l.516.2-9.561 36.473H21.393l-6.712-3.855z"/></g></g></g></g></svg>