<svg width="218" height="58" xmlns="http://www.w3.org/2000/svg" xmlns:xlink="http://www.w3.org/1999/xlink"><defs><rect id="path-1" x="0" y="0" width="210" height="50" rx="2"/><filter x="-3.3%" y="-10%" width="106.7%" height="128%" filterUnits="objectBoundingBox" id="filter-3"><feOffset dy="2" in="SourceAlpha" result="shadowOffsetOuter1"/><feGaussianBlur stdDeviation="2" in="shadowOffsetOuter1" result="shadowBlurOuter1"/><feColorMatrix values="0 0 0 0 0 0 0 0 0 0 0 0 0 0 0 0 0 0 0.1 0" in="shadowBlurOuter1"/></filter><path d="M13.147 2.267c10 0 10.666 2.666 10.666 2.666V13.8c0 4.816-2.596 9.258-6.793 11.62l-3.873 2.18-3.874-2.18A13.333 13.333 0 0 1 2.48 13.8V4.933s0-2.666 10.667-2.666z" id="path-4"/><filter x="-4.7%" y="-3.9%" width="109.4%" height="107.9%" filterUnits="objectBoundingBox" id="filter-5"><feOffset dx="2" dy="2" in="SourceAlpha" result="shadowOffsetInner1"/><feComposite in="shadowOffsetInner1" in2="SourceAlpha" operator="arithmetic" k2="-1" k3="1" result="shadowInnerInner1"/><feColorMatrix values="0 0 0 0 0 0 0 0 0 0 0 0 0 0 0 0 0 0 0.2 0" in="shadowInnerInner1"/></filter><text id="text-6" font-family="Lato-Bold, Lato" font-size="18" font-weight="bold" fill="#414141"><tspan x="30.385" y="20">SECURE</tspan></text><filter x="-.7%" y="-2.3%" width="101.5%" height="109.1%" filterUnits="objectBoundingBox" id="filter-7"><feOffset dy="1" in="SourceAlpha" result="shadowOffsetOuter1"/><feColorMatrix values="0 0 0 0 0 0 0 0 0 0 0 0 0 0 0 0 0 0 0.2 0" in="shadowOffsetOuter1"/></filter></defs><g id="Page-1" stroke="none" stroke-width="1" fill="none" fill-rule="evenodd"><g id="IE_home_xl_long_form" transform="translate(-1451 -813)"><g id="ic_trust_6" transform="translate(1455 815)"><mask id="mask-2" fill="#fff"><use xlink:href="#path-1"/></mask><g id="Rectangle" fill-rule="nonzero"><use fill="#000" filter="url(#filter-3)" xlink:href="#path-1"/><use fill="#FFF" xlink:href="#path-1"/></g><g id="Group-35" mask="url(#mask-2)"><g transform="translate(56 12)"><g id="Security_check" stroke-width="1" fill-rule="evenodd"><g id="Shape"><use fill="#3C73B3" xlink:href="#path-4"/><use fill="#000" filter="url(#filter-5)" xlink:href="#path-4"/></g><path d="M13.147 2.267c10 0 10.666 2.666 10.666 2.666V13.8c0 4.816-2.596 9.258-6.793 11.62l-3.873 2.18-3.874-2.18A13.333 13.333 0 0 1 2.48 13.8V4.933s0-2.666 10.667-2.666zm0-2c-4.74 0-8.18.52-10.227 1.546C.66 2.947.48 4.48.48 4.933V13.8a15.333 15.333 0 0 0 7.813 13.333l3.874 2.18a2 2 0 0 0 1.96 0L18 27.133A15.333 15.333 0 0 0 25.813 13.8V4.933a2 2 0 0 0-.06-.486c-.393-1.56-2.546-4.18-12.606-4.18z" id="Shape-Copy" fill="#4A90E2"/><path d="M12.48 18.6a1 1 0 0 1-.707-.293L7.107 13.64a1 1 0 0 1 1.413-1.413l3.96 3.96 6.627-6.627a1 1 0 0 1 1.413 1.413l-7.333 7.334a1 1 0 0 1-.707.293z" id="Shape" fill="#F2F2F2"/></g><g id="SECURE" fill-opacity="1" fill="#414141"><use filter="url(#filter-7)" xlink:href="#text-6"/><use xlink:href="#text-6"/></g></g></g></g></g></g></svg>