<svg width="152" height="152" xmlns="http://www.w3.org/2000/svg" xmlns:xlink="http://www.w3.org/1999/xlink"><defs><circle id="path-1" cx="60" cy="60" r="60"/><filter x="-23.3%" y="-16.7%" width="146.7%" height="146.7%" filterUnits="objectBoundingBox" id="filter-3"><feOffset dy="8" in="SourceAlpha" result="shadowOffsetOuter1"/><feGaussianBlur stdDeviation="8" in="shadowOffsetOuter1" result="shadowBlurOuter1"/><feColorMatrix values="0 0 0 0 0 0 0 0 0 0 0 0 0 0 0 0 0 0 0.2 0" in="shadowBlurOuter1"/></filter><circle id="path-4" cx="60" cy="60" r="43"/></defs><g id="Page-1" stroke="none" stroke-width="1" fill="none" fill-rule="evenodd"><g id="IE_home_xl_long_form" transform="translate(-1364 -3414)"><g id="Group-4" transform="translate(0 3214)"><g id="ic_Ass_3" transform="translate(1380 208)"><mask id="mask-2" fill="#fff"><use xlink:href="#path-1"/></mask><g id="Oval" fill-rule="nonzero"><use fill="#000" filter="url(#filter-3)" xlink:href="#path-1"/><use fill="#EBF4FD" xlink:href="#path-1"/></g><mask id="mask-5" fill="#fff"><use xlink:href="#path-4"/></mask><use id="Oval-Copy-10" stroke="#4F637C" stroke-width="2" fill="#3696F5" fill-rule="nonzero" xlink:href="#path-4"/><g id="Locked" mask="url(#mask-5)" fill="#F8F8F8"><g id="Shape"><path d="M31.72 15.4h-3v-4c0-6.075-4.925-11-11-11s-11 4.925-11 11v4h-3a3 3 0 0 0-3 3v20a3 3 0 0 0 3 3h28a3 3 0 0 0 3-3v-20a3 3 0 0 0-3-3zm-22-4a8 8 0 1 1 16 0v4h-16v-4zm22 27h-28v-20h28v20z" transform="translate(43 35)"/><path d="M18.22 33.4a4.5 4.5 0 1 0-4.5-4.5 4.51 4.51 0 0 0 4.5 4.5zm0-6a1.5 1.5 0 1 1 0 3 1.5 1.5 0 0 1 0-3z" transform="translate(43 35)"/></g></g></g></g></g></g></svg>