<svg width="152" height="152" xmlns="http://www.w3.org/2000/svg" xmlns:xlink="http://www.w3.org/1999/xlink"><defs><circle id="path-1" cx="60" cy="60" r="60"/><filter x="-23.3%" y="-16.7%" width="146.7%" height="146.7%" filterUnits="objectBoundingBox" id="filter-3"><feOffset dy="8" in="SourceAlpha" result="shadowOffsetOuter1"/><feGaussianBlur stdDeviation="8" in="shadowOffsetOuter1" result="shadowBlurOuter1"/><feColorMatrix values="0 0 0 0 0 0 0 0 0 0 0 0 0 0 0 0 0 0 0.2 0" in="shadowBlurOuter1"/></filter></defs><g id="Page-1" stroke="none" stroke-width="1" fill="none" fill-rule="evenodd"><g id="IE_home_xl_long_form" transform="translate(-884 -3414)"><g id="Group-4" transform="translate(0 3214)"><g id="ic_Ass_2" transform="translate(900 208)"><mask id="mask-2" fill="#fff"><use xlink:href="#path-1"/></mask><g id="Oval" fill-rule="nonzero"><use fill="#000" filter="url(#filter-3)" xlink:href="#path-1"/><use fill="#EBF4FD" xlink:href="#path-1"/></g><g id="Group-6" mask="url(#mask-2)"><g transform="translate(25 25)"><path d="M3.407 4.814L31.987.46a20 20 0 0 1 6.026 0l28.58 4.355a4 4 0 0 1 3.398 3.964c-.031 12.679-.028 24.568.009 35.666C70 58.845 58.333 70.697 35 80 11.667 70.87 0 59.018 0 44.444.037 33.346.04 21.457.01 8.778h0a4 4 0 0 1 3.397-3.964z" id="Rectangle" stroke="#4F637C" stroke-width="2" fill="#3696F5" fill-rule="nonzero"/><g id="Chart-14" stroke="none" stroke-width="1" fill="none" fill-rule="evenodd" transform="translate(14 12)"><path d="M37.22 17.4h.5a5.006 5.006 0 0 0 .5-10h-.5a5 5 0 0 0-4 8l-6.51 9.22a5 5 0 0 0-1-.22h-.5a5 5 0 0 0-3 1l-6.15-4.39a5 5 0 0 0-4.38-6h-.5a5 5 0 0 0-4.4 7.36l-3.57 4.29V2.4a1.5 1.5 0 0 0-3 0v38.5a1.5 1.5 0 0 0 1.51 1.5h38.5a1.5 1.5 0 0 0 0-3h-37v-8.06l5.73-6.88a5 5 0 0 0 1.75.52h.5a5 5 0 0 0 3.41-1.34l5.86 4.19a5 5 0 0 0-.23 1 5 5 0 0 0 4.48 5.57h.5a5 5 0 0 0 4-8l6.51-9.22a5 5 0 0 0 .99.22zM11.7 22.03h-.2a2.002 2.002 0 0 1 .2-4h.2a2.002 2.002 0 1 1-.2 4zm26-11.61h.2a2.002 2.002 0 1 1-.2 4h-.2a2.002 2.002 0 1 1 .2-4zm-12 21h-.2a2.002 2.002 0 0 1 .2-4h.2a2.002 2.002 0 0 1-.2 4z" id="Shape" fill="#F8F8F8"/></g></g></g></g></g></g></g></svg>