<svg width="152" height="152" xmlns="http://www.w3.org/2000/svg" xmlns:xlink="http://www.w3.org/1999/xlink"><defs><circle id="path-1" cx="60" cy="60" r="60"/><filter x="-23.3%" y="-16.7%" width="146.7%" height="146.7%" filterUnits="objectBoundingBox" id="filter-3"><feOffset dy="8" in="SourceAlpha" result="shadowOffsetOuter1"/><feGaussianBlur stdDeviation="8" in="shadowOffsetOuter1" result="shadowBlurOuter1"/><feColorMatrix values="0 0 0 0 0 0 0 0 0 0 0 0 0 0 0 0 0 0 0.2 0" in="shadowBlurOuter1"/></filter></defs><g id="Page-1" stroke="none" stroke-width="1" fill="none" fill-rule="evenodd"><g id="IE_home_xl_long_form" transform="translate(-404 -3414)"><g id="Group-4" transform="translate(0 3214)"><g id="ic_Ass_1" transform="translate(420 208)"><mask id="mask-2" fill="#fff"><use xlink:href="#path-1"/></mask><g id="Oval" fill-rule="nonzero"><use fill="#000" filter="url(#filter-3)" xlink:href="#path-1"/><use fill="#EBF4FD" xlink:href="#path-1"/></g><g id="Group-6" mask="url(#mask-2)"><g transform="translate(15 15)"><path d="M34.688 81.064a37.27 37.27 0 0 1-7.895-3.273L23.3 81.283a4 4 0 0 1-5.657 0l-8.927-8.927a4 4 0 0 1 0-5.657l3.492-3.492a37.27 37.27 0 0 1-3.273-7.895H4a4 4 0 0 1-4-4V38.688a4 4 0 0 1 4-4h4.936a37.27 37.27 0 0 1 3.273-7.895L8.717 23.3a4 4 0 0 1 0-5.657l8.927-8.927a4 4 0 0 1 5.657 0l3.492 3.492a37.27 37.27 0 0 1 7.895-3.273V4a4 4 0 0 1 4-4h12.624a4 4 0 0 1 4 4v4.936a37.27 37.27 0 0 1 7.895 3.273L66.7 8.717a4 4 0 0 1 5.657 0l8.927 8.927a4 4 0 0 1 0 5.657l-3.492 3.492a37.27 37.27 0 0 1 3.273 7.895H86a4 4 0 0 1 4 4v12.624a4 4 0 0 1-4 4h-4.936a37.27 37.27 0 0 1-3.273 7.895l3.492 3.492a4 4 0 0 1 0 5.657l-8.927 8.927a4 4 0 0 1-5.657 0l-3.492-3.492a37.27 37.27 0 0 1-7.895 3.273V86a4 4 0 0 1-4 4H38.688a4 4 0 0 1-4-4v-4.936z" id="Combined-Shape" stroke="#4F637C" stroke-width="2" fill="#3696F5" fill-rule="nonzero"/><circle id="Oval" stroke="none" fill="#3696F5" fill-rule="nonzero" cx="45" cy="46" r="12"/><path d="M39 57h11v6a4 4 0 0 1-4 4h-3a4 4 0 0 1-4-4v-6z" id="Rectangle" stroke="none" fill="#3696F5" fill-rule="nonzero"/><g id="Idea" stroke="none" stroke-width="1" fill="#F8F8F8" fill-rule="evenodd" transform="translate(22 22)"><path d="M22.22 5.9a1.5 1.5 0 0 0 1.5-1.5v-2a1.5 1.5 0 0 0-3 0v2a1.5 1.5 0 0 0 1.5 1.5zm21.5 13.5h-2a1.5 1.5 0 0 0 0 3h2a1.5 1.5 0 0 0 0-3zm-38.5 1.5a1.5 1.5 0 0 0-1.5-1.5h-2a1.5 1.5 0 0 0 0 3h2a1.5 1.5 0 0 0 1.5-1.5zm30.93-9.94a1.5 1.5 0 0 0 1.06-.44l1.42-1.41a1.5 1.5 0 0 0-2.12-2.12L35.09 8.4a1.5 1.5 0 0 0 1.06 2.56zM9.35 8.4L7.93 6.99a1.5 1.5 0 0 0-2.12 2.12l1.42 1.41A1.5 1.5 0 0 0 9.35 8.4zm29.87 24a1.5 1.5 0 0 0-2.12 2.12l1.42 1.41a1.5 1.5 0 0 0 2.12-2.12l-1.42-1.41zm-34 0L3.8 33.81a1.5 1.5 0 0 0 2.12 2.12l1.42-1.41a1.5 1.5 0 0 0-2.12-2.12zm31.5-9a14 14 0 1 0-20.5 12.38 3 3 0 0 0-.48 1.62v3a6 6 0 0 0 6 6h2a6 6 0 0 0 6-6v-3a3 3 0 0 0-.48-1.62 14 14 0 0 0 7.46-12.38zm-10 14v1h-5a1.5 1.5 0 0 0 0 3h4.82a3 3 0 0 1-2.82 2h-2a3 3 0 0 1-3-3v-3h8zm-4-3c-6.075 0-11-4.925-11-11s4.925-11 11-11 11 4.925 11 11a11 11 0 0 1-11.01 11h.01z" id="Shape"/><path d="M22.72 14.9a1.5 1.5 0 0 0 0 3 5.51 5.51 0 0 1 5.5 5.5 1.5 1.5 0 0 0 3 0 8.51 8.51 0 0 0-8.5-8.5z" id="Shape"/></g></g></g></g></g></g></g></svg>