<svg width="126" height="136" viewBox="0 0 126 136" fill="none" xmlns="http://www.w3.org/2000/svg">
<g clip-path="url(#clip0_1_441)">
<path d="M99.4577 100.491H25.4118C21.1404 100.491 17.665 96.9973 17.665 92.7031V48.3713C17.665 47.5336 18.3404 46.8546 19.1736 46.8546H105.696C106.529 46.8546 107.205 47.5336 107.205 48.3713V92.7031C107.205 96.9973 103.729 100.491 99.4577 100.491ZM20.6823 49.888V92.7031C20.6823 95.3249 22.8039 97.4579 25.4118 97.4579H99.4577C102.066 97.4579 104.187 95.3249 104.187 92.7031V49.888H20.6823Z" fill="black"/>
<path d="M100.678 99.1778H24.1923C21.3139 99.1778 18.9715 96.8234 18.9715 93.9291V48.3713C18.9715 48.259 19.062 48.168 19.1737 48.168H105.696C105.808 48.168 105.898 48.259 105.898 48.3713V93.9291C105.898 96.8229 103.556 99.1778 100.677 99.1778H100.678ZM19.3763 48.5745V93.9291C19.3763 96.5989 21.5367 98.7708 24.1923 98.7708H100.678C103.333 98.7708 105.494 96.5989 105.494 93.9291V48.5745H19.3763Z" fill="black"/>
<path d="M100.678 99.2031H24.1923C21.2998 99.2031 18.9464 96.8371 18.9464 93.9291V48.3713C18.9464 48.2454 19.0484 48.1428 19.1736 48.1428H105.696C105.821 48.1428 105.923 48.2454 105.923 48.3713V93.9291C105.923 96.8371 103.57 99.2031 100.678 99.2031ZM19.1736 48.1933C19.0761 48.1933 18.9966 48.2732 18.9966 48.3713V93.9291C18.9966 96.8093 21.3275 99.1526 24.1923 99.1526H100.678C103.543 99.1526 105.873 96.8093 105.873 93.9291V48.3713C105.873 48.2732 105.793 48.1933 105.696 48.1933H19.1736ZM100.678 98.7961H24.1923C21.5231 98.7961 19.3512 96.6126 19.3512 93.9291V48.5492H105.519V93.9291C105.519 96.6126 103.347 98.7961 100.678 98.7961ZM19.4015 48.5998V93.9291C19.4015 96.5848 21.5507 98.7456 24.1923 98.7456H100.678C103.319 98.7456 105.469 96.5848 105.469 93.9291V48.5998H19.4015Z" fill="black"/>
<path d="M61.819 23.3307C61.2668 23.6684 60.777 24.085 60.3707 24.5704C60.3707 24.5704 53.2228 10.8342 47.6676 7.82713C40.8335 4.135 36.1055 9.0698 36.9347 13.9819C38.0999 20.9627 58.8943 26.1209 59.3619 26.219C59.2443 26.5097 59.1477 26.8161 59.0773 27.1219C58.4598 27.085 34.717 25.3747 30.5814 14.6441C27.1523 5.72197 36.1447 -1.09656 44.8067 0.56775C58.3235 3.16382 61.7255 22.7958 61.819 23.3307Z" fill="#18AE0B"/>
<path d="M59.0773 27.3252C59.0733 27.3252 59.0693 27.3252 59.0652 27.3252C59.0044 27.3217 52.808 26.9127 46.0956 25.0896C42.3009 24.0587 39.1026 22.7807 36.5887 21.2908C33.4387 19.4232 31.3538 17.2119 30.3928 14.718C29.6697 12.8368 29.46 10.9783 29.7687 9.19418C30.0554 7.53947 30.772 6.01217 31.8989 4.65423C33.312 2.952 35.2722 1.64208 37.5668 0.866042C39.9067 0.0748363 42.4231 -0.0970551 44.8444 0.368063C47.9648 0.967155 50.803 2.52024 53.2802 4.98436C55.2645 6.95757 57.0241 9.51875 58.5101 12.5956C61.0038 17.7599 61.9211 22.7407 62.0171 23.2913V23.2953C62.0322 23.3778 61.995 23.4607 61.9236 23.5041C61.3845 23.8338 60.9138 24.2367 60.5251 24.7008C60.4818 24.7529 60.4155 24.7797 60.3486 24.7721C60.2817 24.7645 60.2224 24.7241 60.1912 24.6644C60.1736 24.63 58.3788 21.1932 55.9308 17.4349C52.7034 12.4798 49.8123 9.21946 47.571 8.00611C45.9774 7.14514 44.4336 6.72147 42.9823 6.74372C41.7004 6.76445 40.5066 7.14817 39.5295 7.85394C37.6754 9.19317 36.7351 11.585 37.1338 13.9475C37.3908 15.4854 38.6842 17.0698 40.9793 18.6573C42.8475 19.9495 45.3729 21.2397 48.4852 22.4925C54.0098 24.716 59.3579 26.0107 59.4032 26.0203C59.462 26.0325 59.5123 26.0704 59.5405 26.124C59.5686 26.1771 59.5716 26.2403 59.549 26.2964C59.4349 26.5785 59.3423 26.8717 59.2744 27.1685C59.2533 27.261 59.1709 27.3262 59.0773 27.3262V27.3252ZM42.1545 0.519226C40.6444 0.519226 39.1358 0.76493 37.6961 1.25179C35.4718 2.00356 33.575 3.2705 32.2097 4.9151C29.9392 7.65019 29.4278 11.0794 30.7699 14.5714C31.6972 16.9778 33.7243 19.1209 36.7944 20.9409C39.2766 22.4126 42.4417 23.676 46.2012 24.6973C52.2593 26.3429 57.89 26.8287 58.9214 26.9071C58.9692 26.7231 59.0255 26.5406 59.0904 26.3616C58.0037 26.0886 53.2339 24.8419 48.3349 22.8702C45.1949 21.6063 42.6433 20.3019 40.7505 18.9925C38.3619 17.3403 37.0111 15.6659 36.7356 14.0152C36.3111 11.5011 37.3149 8.95252 39.2937 7.5238C40.3382 6.7695 41.6119 6.35898 42.9762 6.33725C44.4974 6.31298 46.1082 6.75383 47.7631 7.64817C49.0525 8.34635 50.5284 9.66891 52.1497 11.5799C53.4391 13.0997 54.826 14.996 56.2713 17.2149C58.3416 20.3939 59.9463 23.3439 60.4124 24.2165C60.7579 23.8444 61.1542 23.5143 61.5952 23.2311C61.4177 22.2686 60.4788 17.6037 58.146 12.7731C56.6801 9.73716 54.9472 7.21389 52.9955 5.27304C50.5762 2.86706 47.8084 1.35138 44.7685 0.767458C43.9051 0.601633 43.029 0.519226 42.154 0.519226H42.1545Z" fill="#18AE0B"/>
<path d="M63.0581 23.2185C63.6103 23.5562 64.1001 23.9728 64.5064 24.4581C64.5064 24.4581 71.6543 10.722 77.2095 7.7149C84.0436 4.02277 88.7716 8.95757 87.9424 13.8696C86.7772 20.8504 65.9828 26.0087 65.5157 26.1068C65.6333 26.3975 65.7299 26.7038 65.8003 27.0097C66.4178 26.9728 90.1606 25.2625 94.2962 14.5319C97.7253 5.60923 88.7329 -1.20879 80.0709 0.455521C66.5541 3.05159 63.1521 22.6836 63.0586 23.2185H63.0581Z" fill="#18AE0B"/>
<path d="M65.7998 27.213C65.7062 27.213 65.6243 27.1482 65.6027 27.0552C65.5348 26.759 65.4422 26.4652 65.3281 26.1831C65.3055 26.127 65.3085 26.0643 65.3366 26.0107C65.3648 25.9576 65.4151 25.9197 65.4739 25.9071C65.5192 25.8975 70.8673 24.6032 76.3918 22.3793C79.5041 21.1265 82.0291 19.8363 83.8978 18.5441C86.1929 16.9566 87.4863 15.3722 87.7433 13.8347C88.1425 11.4717 87.2022 9.07992 85.3476 7.74068C84.3705 7.03492 83.1761 6.65069 81.8948 6.63047C80.445 6.60721 78.8997 7.03188 77.3056 7.89286C75.0643 9.10621 72.1732 12.3666 68.9458 17.3216C66.4978 21.08 64.7035 24.5173 64.6854 24.5512C64.6542 24.6113 64.5954 24.6518 64.528 24.6588C64.4606 24.6664 64.3947 24.6396 64.3515 24.5876C63.9623 24.1229 63.4921 23.7205 62.953 23.3909C62.8816 23.3474 62.8444 23.2645 62.859 23.1821V23.1781C62.956 22.627 63.8728 17.6467 66.367 12.4819C67.853 9.40449 69.6126 6.84382 71.5969 4.8706C74.0741 2.40699 76.9123 0.853904 80.0327 0.254812C82.454 -0.210306 84.9709 -0.0384144 87.3103 0.752792C89.6054 1.52883 91.5651 2.83875 92.9782 4.54098C94.1051 5.89892 94.8217 7.42622 95.1084 9.08093C95.4171 10.8656 95.2074 12.724 94.4848 14.6047C93.5233 17.0992 91.4389 19.3105 88.2884 21.178C85.7745 22.6679 82.5762 23.946 78.7815 24.9768C72.0696 26.7999 65.8727 27.2084 65.8118 27.2124C65.8078 27.2124 65.8038 27.2124 65.7998 27.2124V27.213ZM65.7867 26.2493C65.8516 26.4283 65.9079 26.6108 65.9557 26.7949C66.9871 26.7165 72.6178 26.2301 78.6759 24.585C82.4354 23.5638 85.6005 22.2999 88.0827 20.8287C91.1528 19.0092 93.1793 16.8661 94.1071 14.4591C95.4493 10.9672 94.9379 7.53795 92.6674 4.80286C91.3021 3.15826 89.4053 1.89183 87.181 1.13955C84.9075 0.370586 82.4616 0.203245 80.1081 0.655724C77.0682 1.23965 74.2999 2.75533 71.8811 5.1613C69.9294 7.10216 68.197 9.62542 66.7306 12.6613C64.3978 17.492 63.4589 22.1568 63.2814 23.1194C63.7224 23.4025 64.1192 23.7327 64.4641 24.1047C64.9298 23.2321 66.535 20.2822 68.6053 17.1032C70.0506 14.8838 71.4375 12.9879 72.7269 11.4682C74.3482 9.55717 75.8241 8.23411 77.1135 7.53644C78.7689 6.6421 80.3797 6.20124 81.9003 6.22551C83.2647 6.24725 84.5384 6.65777 85.5829 7.41207C87.5617 8.8413 88.566 11.3893 88.141 13.904C87.8655 15.5542 86.5147 17.2286 84.1261 18.8808C82.2333 20.1902 79.6812 21.4945 76.5412 22.7584C71.6422 24.7301 66.8719 25.9768 65.7857 26.2499L65.7867 26.2493Z" fill="#18AE0B"/>
<path d="M55.7508 27.3869C55.8212 27.081 55.9172 26.7746 56.0354 26.4839C56.2783 25.8793 56.6197 25.3227 57.0447 24.8353C57.451 24.35 57.9408 23.9334 58.493 23.5957C59.4937 22.9713 60.6966 22.6219 61.991 22.6472C63.2854 22.672 64.4902 23.0643 65.498 23.722C66.0512 24.0749 66.5435 24.5097 66.9639 25.0057C67.3898 25.5117 67.7338 26.0845 67.9872 26.6958C68.1135 26.9885 68.2085 27.2969 68.2774 27.6048C68.3895 28.0532 68.4524 28.5193 68.4524 28.991L62.7573 28.895L55.6024 28.7716C55.5944 28.2974 55.6527 27.8363 55.7503 27.3874L55.7508 27.3869Z" fill="#18AE0B"/>
<path d="M68.4524 29.1938C68.4524 29.1938 68.4504 29.1938 68.4489 29.1938L62.7543 29.0977L55.5994 28.9743C55.4903 28.9723 55.4023 28.8838 55.4008 28.7746C55.3932 28.3176 55.443 27.8495 55.5531 27.3434C55.5531 27.3429 55.5531 27.3419 55.5531 27.3414C55.6261 27.0239 55.7251 26.7094 55.8473 26.4076C56.0983 25.7832 56.4498 25.2094 56.8913 24.7018C57.3062 24.2064 57.81 23.7751 58.3868 23.4228C59.4524 22.7579 60.7001 22.4192 61.994 22.4445C63.2859 22.4693 64.5355 22.8525 65.6071 23.5522C66.1683 23.9106 66.6772 24.3555 67.1168 24.8742C67.5528 25.3924 67.9078 25.9789 68.1728 26.6179C68.2965 26.9046 68.3976 27.2216 68.473 27.5583C68.5927 28.0375 68.6535 28.5198 68.6535 28.9915C68.6535 29.0461 68.6319 29.0982 68.5932 29.1366C68.5555 29.174 68.5042 29.1948 68.4514 29.1948L68.4524 29.1938ZM55.8056 28.5709L62.7609 28.6907L68.2457 28.7832C68.2306 28.4101 68.1753 28.0315 68.0808 27.6538C68.0808 27.6523 68.0798 27.6503 68.0798 27.6488C68.0099 27.3358 67.9163 27.0426 67.8012 26.7757C67.5512 26.1725 67.2178 25.622 66.809 25.1361C66.3956 24.6487 65.9179 24.2301 65.3889 23.8929C64.3786 23.2337 63.2024 22.8732 61.9864 22.8494C60.771 22.8257 59.5998 23.1437 58.5991 23.7676C58.0585 24.0982 57.5878 24.5006 57.199 24.9652C56.7847 25.4415 56.4568 25.9769 56.223 26.5593C56.1088 26.8414 56.0163 27.1346 55.9484 27.4309C55.8609 27.8328 55.8141 28.2074 55.8061 28.5704L55.8056 28.5709Z" fill="#18AE0B"/>
<path d="M105.18 50.0922H19.6841C17.6776 50.0922 15.7752 49.4622 14.3264 48.3182C12.77 47.0891 11.9131 45.4243 11.9131 43.6306V32.4576C11.9131 30.6634 12.77 28.9986 14.3264 27.7701C15.7752 26.626 17.6781 25.996 19.6841 25.996H105.124C105.674 25.9596 108.184 25.9111 110.538 27.7701C112.094 28.9986 112.951 30.6634 112.951 32.4576V43.6306C112.951 45.4248 112.094 47.0896 110.538 48.3182C109.089 49.4622 107.186 50.0922 105.18 50.0922ZM19.6841 29.0294C17.1073 29.0294 14.9304 30.5992 14.9304 32.4576V43.6306C14.9304 45.489 17.1073 47.0588 19.6841 47.0588H105.18C107.757 47.0588 109.934 45.489 109.934 43.6306V32.4576C109.934 31.6144 109.487 30.7969 108.674 30.1553C107.089 28.903 105.337 29.0213 105.32 29.0228C105.273 29.0274 105.227 29.0294 105.18 29.0294H19.6841Z" fill="black"/>
<path d="M105.18 50.2954H19.684C17.6212 50.2954 15.6661 49.6427 14.1781 48.4582C12.587 47.1908 11.7104 45.4764 11.7104 43.6306V32.4576C11.7104 30.6118 12.587 28.897 14.1781 27.63C15.6661 26.445 17.6212 25.7928 19.684 25.7928H105.12C105.663 25.7599 108.264 25.7155 110.663 27.6103C112.269 28.8783 113.154 30.6002 113.154 32.4582V43.6311C113.154 45.4769 112.278 47.1918 110.686 48.4587C109.198 49.6438 107.243 50.2959 105.18 50.2959V50.2954ZM19.684 29.2327C17.2169 29.2327 15.1325 30.7094 15.1325 32.4576V43.6306C15.1325 45.3788 17.2169 46.8556 19.684 46.8556H105.18C107.648 46.8556 109.732 45.3788 109.732 43.6306V32.4576C109.732 31.6781 109.312 30.9172 108.55 30.3151C107.064 29.1422 105.39 29.2225 105.321 29.2266C105.274 29.2306 105.227 29.2322 105.18 29.2322H19.684V29.2327ZM105.341 29.2251C105.341 29.2251 105.337 29.2251 105.335 29.2256C105.331 29.2256 105.327 29.2261 105.323 29.2266C105.333 29.2256 105.34 29.2251 105.341 29.2251H105.341Z" fill="black"/>
<path d="M123.212 31.1179L114.555 27.583L126 24.7685L123.212 31.1179Z" fill="#18AE0B"/>
<path d="M123.206 18.7862L113.668 24.2139L119.692 12.7882L123.206 18.7862Z" fill="#18AE0B"/>
<path d="M111.676 15.7478L110.835 23.0663L106.57 15.3934L111.676 15.7478Z" fill="#18AE0B"/>
</g>
<defs>
<clipPath id="clip0_1_441">
<rect width="126" height="136" fill="white"/>
</clipPath>
</defs>
</svg>
